<?xml version="1.0" encoding="UTF-8"?>
<svg width="24px" height="23px" viewBox="0 0 24 23" version="1.1" xmlns="http://www.w3.org/2000/svg" xmlns:xlink="http://www.w3.org/1999/xlink">
    <!-- Generator: Sketch 63 (92445) - https://sketch.com -->
    <title>icon/订阅/对勾</title>
    <desc>Created with Sketch.</desc>
    <g id="切图" stroke="none" stroke-width="1" fill="none" fill-rule="evenodd">
        <g id="订阅" transform="translate(-1309.000000, -1006.000000)" fill="#7BD52F">
            <g id="icon/订阅/对勾" transform="translate(1309.000000, 1006.000000)">
                <path d="M24,3.01042395 C24,4.13795987 23.4666093,5.23702892 22.4011193,6.30639339 L22.2345154,6.46481775 L12.9137384,15.8762153 C10.9312813,17.8713721 9.24457838,19.4135343 7.85233816,20.5027018 C6.45880644,21.5918694 5.47597266,22.1352154 4.90254534,22.1352154 C4.29941344,22.1352154 3.55034171,21.8629236 2.65533014,21.3183398 C1.76031857,20.7749937 1.18301674,20.2118446 0.920841629,19.6350809 C0.698703116,19.1523817 0.490771135,18.1312871 0.295754184,16.5693219 C0.09944573,15.0085943 0,13.3166716 0,11.4960291 C0,10.5034014 0.432653501,9.58503516 1.2979605,8.74216802 C2.1632675,7.89930088 3.11768821,7.47724847 4.16380563,7.47724847 C5.15955443,7.47724847 5.75364581,8.34858249 5.94478825,10.0937259 C5.96416079,10.2967071 5.97836732,10.4464676 5.98869935,10.5417698 C6.15013722,11.8821885 6.33611365,12.8166447 6.54792014,13.3463762 C6.75843513,13.8761076 7.04514879,14.1409734 7.40676963,14.1409734 C7.55787548,14.1409734 7.83942313,13.9850244 8.25141258,13.6718887 C8.66340203,13.3575154 9.15675617,12.9329876 9.7301835,12.3921169 L19.3092612,3.29880581 C20.112576,2.52772471 20.8319432,1.94601024 21.4660711,1.54994933 C22.0989076,1.1551261 22.6374643,0.958333333 23.0804499,0.958333333 C23.4110746,0.958333333 23.6487112,1.07715161 23.7881935,1.31973892 C23.9289673,1.55985085 24,1.9645756 24,2.53267547 L24,3.01042395 Z" id="Fill-1"></path>
            </g>
        </g>
    </g>
</svg>