<?xml version="1.0" encoding="UTF-8"?>
<svg width="22px" height="14px" viewBox="0 0 22 14" version="1.1" xmlns="http://www.w3.org/2000/svg" xmlns:xlink="http://www.w3.org/1999/xlink">
    <!-- Generator: Sketch 63 (92445) - https://sketch.com -->
    <title>web/icon/显示</title>
    <desc>Created with Sketch.</desc>
    <g id="切图" stroke="none" stroke-width="1" fill="none" fill-rule="evenodd" stroke-linecap="round" stroke-linejoin="round">
        <g id="登录" transform="translate(-1332.000000, -539.000000)" stroke="#999999">
            <g id="1-webicon/显示" transform="translate(1333.000000, 536.000000)">
                <g id="编组" transform="translate(0.000000, 4.000000)">
                    <path d="M19.3748333,5.98783333 C19.3756667,7.82366667 15.1781667,11.3503333 9.99983333,11.3503333 C4.82233333,11.3503333 0.625666667,7.82366667 0.624833333,5.98783333 C0.624833333,4.0995 4.82233333,0.6245 9.99983333,0.6245 C15.1781667,0.6245 19.3748333,4.0995 19.3748333,5.98783333 Z" id="Stroke-1" stroke-width="1.5"></path>
                    <path d="M13.73275,5.98783333 C13.73275,8.0495 12.0619167,9.72033333 10.00025,9.72033333 C7.93858333,9.72033333 6.26691667,8.0495 6.26691667,5.98783333 C6.26691667,3.92616667 7.93858333,2.2545 10.00025,2.2545 C12.0619167,2.2545 13.73275,3.92616667 13.73275,5.98783333 Z" id="Stroke-3" stroke-width="1.5"></path>
                </g>
            </g>
        </g>
    </g>
</svg>