<?xml version="1.0" encoding="UTF-8"?>
<svg width="75px" height="56px" viewBox="0 0 75 56" version="1.1" xmlns="http://www.w3.org/2000/svg" xmlns:xlink="http://www.w3.org/1999/xlink">
    <!-- Generator: Sketch 63 (92445) - https://sketch.com -->
    <title>btn/header/用户</title>
    <desc>Created with Sketch.</desc>
    <g id="切图" stroke="none" stroke-width="1" fill="none" fill-rule="evenodd">
        <g id="用户资料" transform="translate(-1585.000000, -22.000000)">
            <g id="btn/header/用户" transform="translate(1585.000000, 22.000000)">
                <g id="bg/btn/用户" fill="#FFB900">
                    <rect id="矩形备份" x="0" y="0" width="75" height="56" rx="6"></rect>
                </g>
                <g id="icon/标题/f2备份-3" transform="translate(18.000000, 8.000000)" fill="#FFFFFF">
                    <path d="M19.939,37 C11.003,37 5,34.771 5,32.688 C5,25.778 11.702,20.157 19.939,20.157 C28.177,20.157 34.878,25.778 34.878,32.688 C34.878,34.771 28.876,37 19.939,37 M12.688,10.079 C12.688,6.176 15.941,3 19.939,3 C23.938,3 27.191,6.176 27.191,10.079 C27.191,13.981 23.938,17.157 19.939,17.157 C15.941,17.157 12.688,13.981 12.688,10.079 M26.095,18.119 C28.577,16.278 30.191,13.364 30.191,10.079 C30.191,4.521 25.592,0 19.939,0 C14.287,0 9.688,4.521 9.688,10.079 C9.688,13.364 11.302,16.278 13.784,18.119 C6.919,20.3 2,25.999 2,32.688 C2,34.443 3.073,36.871 8.188,38.479 C11.311,39.46 15.484,40 19.939,40 C28.215,40 37.878,38.085 37.878,32.688 C37.878,25.999 32.959,20.3 26.095,18.119" id="Fill-1"></path>
                </g>
            </g>
        </g>
    </g>
</svg>