<?xml version="1.0" encoding="UTF-8"?>
<svg width="122px" height="117px" viewBox="0 0 122 117" version="1.1" xmlns="http://www.w3.org/2000/svg" xmlns:xlink="http://www.w3.org/1999/xlink">
    <!-- Generator: Sketch 63 (92445) - https://sketch.com -->
    <title>Group</title>
    <desc>Created with Sketch.</desc>
    <defs>
        <linearGradient x1="50%" y1="0%" x2="50%" y2="100%" id="linearGradient-1">
            <stop stop-color="#FFDB84" offset="0%"></stop>
            <stop stop-color="#FFFFFF" stop-opacity="0.48628715" offset="100%"></stop>
        </linearGradient>
    </defs>
    <g id="切图" stroke="none" stroke-width="1" fill="none" fill-rule="evenodd">
        <g id="折扣页icon切图" transform="translate(-121.000000, -603.000000)" fill-rule="nonzero">
            <g id="Group" transform="translate(122.338456, 603.555073)">
                <path d="M22.4006518,101.700966 C46.2036503,123.50259 80.11157,118.718511 104.339195,93.2069646 C128.566819,67.6954181 123.707955,27.7794404 95.6104455,11.281833 C67.5129361,-5.21577452 36.5306127,-4.62975391 13.6719026,19.7758342 C-9.18680738,44.1814224 -1.40234663,79.8993418 22.4006518,101.700966 Z" id="Shape" stroke="url(#linearGradient-1)" fill-opacity="0.15" fill="#FCC052"></path>
                <path d="M59.7982827,83.0246722 C73.705997,74.9227053 86.4043448,83.6853476 86.9399213,84.0678439 C87.9561056,84.7880038 88.1997588,86.2008114 87.484136,87.2234382 C86.7685132,88.246065 85.3646062,88.4912631 84.3484218,87.7711035 C83.9165052,87.458152 73.4295704,80.3124258 62.044249,86.9365661 C57.189543,89.9007738 51.6374281,91.5091522 45.9596752,91.5960664 C41.3456837,91.672724 36.8047178,90.4308117 32.8639641,88.0145102 C32.2035218,87.55486 31.8369236,86.7755502 31.9022634,85.9701391 C31.9676032,85.1647281 32.4549544,84.455577 33.1807366,84.1098162 C33.9065187,83.7640554 34.7604681,83.8342142 35.4209104,84.2938645 C35.8355503,84.5894298 45.8905685,91.1266391 59.7982827,83.0246722 Z M72.1203933,27.22054 C75.5002408,23.7257033 80.9800564,23.7257033 84.3599039,27.22054 C87.7397514,30.7153767 87.7397514,36.3816266 84.3599039,39.8764633 L84.3599039,39.8764633 L45.8585863,79.7053984 C45.5680117,79.9894633 45.2150467,80.1962817 44.830056,80.3080614 L44.830056,80.3080614 L32.6762563,83.5872573 C32.4937424,83.6034642 32.3102208,83.6034642 32.1277068,83.5872573 C31.5371504,83.5841429 30.9711725,83.342416 30.550627,82.9136927 C29.9887582,82.3424111 29.7662918,81.5034593 29.9677932,80.7157452 L29.9677932,80.7157452 L33.0705263,68.1129981 C33.1570551,67.7059924 33.360158,67.3353815 33.6533601,67.0494751 L33.6533601,67.0494751 Z M57.1724196,49.2000146 L37.2017896,69.8500856 L35.1790134,78.0214871 L43.132981,76.0007934 L63.103611,55.3507225 L57.1724196,49.2000146 Z M81.2057443,30.4820104 C79.544489,28.8478976 76.9358082,28.8478976 75.2745529,30.4820104 L75.2745529,30.4820104 L60.2751527,45.9562696 L66.2234863,52.089252 L81.2057443,36.6149929 C81.9950486,35.8032372 82.4388347,34.6996146 82.4388347,33.5485016 C82.4388347,32.3973886 81.9950486,31.2937661 81.2057443,30.4820104 Z M67.9887892,22.2696681 C68.8823408,21.3759939 70.3310742,21.3759939 71.2246258,22.2696681 C72.1181774,23.1633424 72.1181774,24.6122747 71.2246258,25.505949 L71.2246258,25.505949 L55.8016439,40.9310485 C55.3712701,41.3580611 54.7899515,41.598204 54.1837256,41.5994124 C53.2582162,41.6004959 52.4233565,41.0433949 52.0690325,40.1882785 C51.7147086,39.3331621 51.9108303,38.3487488 52.5658073,37.6947676 L52.5658073,37.6947676 Z" id="Combined-Shape" fill="#FFFFFF"></path>
            </g>
        </g>
    </g>
</svg>