<?xml version="1.0" encoding="UTF-8"?>
<svg width="55px" height="55px" viewBox="0 0 55 55" version="1.1" xmlns="http://www.w3.org/2000/svg" xmlns:xlink="http://www.w3.org/1999/xlink">
    <!-- Generator: Sketch 63 (92445) - https://sketch.com -->
    <title>Group 5</title>
    <desc>Created with Sketch.</desc>
    <defs>
        <linearGradient x1="84.2205415%" y1="85.0000927%" x2="16.7523107%" y2="14.0806771%" id="linearGradient-1">
            <stop stop-color="#FFFFFF" stop-opacity="0.445503715" offset="0%"></stop>
            <stop stop-color="#F75F68" offset="100%"></stop>
        </linearGradient>
    </defs>
    <g id="切图" stroke="none" stroke-width="1" fill="none" fill-rule="evenodd">
        <g id="折扣页icon切图" transform="translate(-278.000000, -178.000000)">
            <g id="Group-5" transform="translate(278.221718, 178.609450)">
                <rect id="矩形" stroke="url(#linearGradient-1)" fill-opacity="0.15" fill="#FB9D9D" x="0.5" y="0.5" width="53" height="53" rx="26.5"></rect>
                <path d="M37.88,15 C38.6824278,15.0054962 39.33,15.6575534 39.33,16.46 L39.33,33.79 C39.33,34.5924466 38.6824278,35.2445038 37.88,35.25 L28.67,35.25 L22.56,39.53 C22.3296704,39.6971268 22.054439,39.7911932 21.77,39.8 C20.9681653,39.7892357 20.3207643,39.1418347 20.31,38.34 L20.31,35.25 L15.45,35.25 C14.6475722,35.2445038 14,34.5924466 14,33.79 L14,16.46 C14,15.6575534 14.6475722,15.0054962 15.45,15 L37.88,15 Z M37.72,16.66 L15.65,16.66 L15.65,33.59 L20.51,33.59 C21.3140668,33.5954515 21.9645485,34.2459332 21.97,35.05 L21.97,37.96 L27.81,33.86 C28.0535792,33.6818136 28.3482172,33.5871085 28.65,33.59 L37.72,33.59 L37.72,16.66 Z M32.88,26.86 C33.3383963,26.86 33.71,27.2316037 33.71,27.69 C33.71,28.1483963 33.3383963,28.52 32.88,28.52 L20.49,28.52 C20.0316037,28.52 19.66,28.1483963 19.66,27.69 C19.66,27.2316037 20.0316037,26.86 20.49,26.86 L32.88,26.86 Z M32.88,20.87 C33.3383963,20.87 33.71,21.2416037 33.71,21.7 C33.71,22.1583963 33.3383963,22.53 32.88,22.53 L20.49,22.53 C20.0316037,22.53 19.66,22.1583963 19.66,21.7 C19.66,21.2416037 20.0316037,20.87 20.49,20.87 L32.88,20.87 Z" id="Combined-Shape-Copy" fill="#FFFFFF" fill-rule="nonzero"></path>
            </g>
        </g>
    </g>
</svg>