<?xml version="1.0" encoding="UTF-8"?>
<svg width="698px" height="594px" viewBox="0 0 698 594" version="1.1" xmlns="http://www.w3.org/2000/svg" xmlns:xlink="http://www.w3.org/1999/xlink">
    <!-- Generator: Sketch 63 (92445) - https://sketch.com -->
    <title>Group 3</title>
    <desc>Created with Sketch.</desc>
    <defs>
        <linearGradient x1="52.0165858%" y1="0%" x2="52.0165858%" y2="100%" id="linearGradient-1">
            <stop stop-color="#FFA599" offset="0%"></stop>
            <stop stop-color="#FF1347" offset="100%"></stop>
        </linearGradient>
        <circle id="path-2" cx="35" cy="30" r="10"></circle>
        <filter x="-7.5%" y="-2.5%" width="110.0%" height="110.0%" filterUnits="objectBoundingBox" id="filter-3">
            <feOffset dx="-1" dy="1" in="SourceAlpha" result="shadowOffsetOuter1"></feOffset>
            <feColorMatrix values="0 0 0 0 1   0 0 0 0 0.45777439   0 0 0 0 0.45777439  0 0 0 0.324819712 0" type="matrix" in="shadowOffsetOuter1"></feColorMatrix>
        </filter>
        <circle id="path-4" cx="65" cy="30" r="10"></circle>
        <filter x="-7.5%" y="-2.5%" width="110.0%" height="110.0%" filterUnits="objectBoundingBox" id="filter-5">
            <feOffset dx="-1" dy="1" in="SourceAlpha" result="shadowOffsetOuter1"></feOffset>
            <feColorMatrix values="0 0 0 0 1   0 0 0 0 0.45777439   0 0 0 0 0.45777439  0 0 0 0.324819712 0" type="matrix" in="shadowOffsetOuter1"></feColorMatrix>
        </filter>
        <circle id="path-6" cx="95" cy="30" r="10"></circle>
        <filter x="-7.5%" y="-2.5%" width="110.0%" height="110.0%" filterUnits="objectBoundingBox" id="filter-7">
            <feOffset dx="-1" dy="1" in="SourceAlpha" result="shadowOffsetOuter1"></feOffset>
            <feColorMatrix values="0 0 0 0 1   0 0 0 0 0.45777439   0 0 0 0 0.45777439  0 0 0 0.324819712 0" type="matrix" in="shadowOffsetOuter1"></feColorMatrix>
        </filter>
        <rect id="path-8" x="2" y="1" width="363" height="190"></rect>
        <mask id="mask-9" maskContentUnits="userSpaceOnUse" maskUnits="objectBoundingBox" x="0" y="0" width="363" height="190" fill="white">
            <use xlink:href="#path-8"></use>
        </mask>
        <polygon id="path-10" points="0 0.001 16.7076 0.001 16.7076 16.709 0 16.709"></polygon>
        <polygon id="path-12" points="0.7541 0.971939895 6.3911 0.971939895 6.3911 8 0.7541 8"></polygon>
        <polygon id="path-14" points="0.840757037 0.466630102 22.4205242 0.466630102 22.4205242 31.6836735 0.840757037 31.6836735"></polygon>
        <polygon id="path-16" points="0.239584659 0.466630102 17.6901902 0.466630102 17.6901902 31.6836735 0.239584659 31.6836735"></polygon>
        <path d="M9.891,32.8952601 C-2.01775,60.0268208 -0.3465,133.206474 0.92225,145.480694 L0.92225,145.480694 C2.191,157.754035 33.8485,148.80185 38.91475,138.645087 L38.91475,138.645087 C43.981875,128.488324 60.9035,15.3054335 33.31475,0.535953757 L33.31475,0.535953757 C33.12925,0.435791908 32.9245,0.387468208 32.70225,0.387468208 L32.70225,0.387468208 C27.384875,0.38483237 12.075,27.9108902 9.891,32.8952601" id="path-18"></path>
        <linearGradient x1="-0.000188834818%" y1="50.0003464%" x2="195.620127%" y2="50.0003464%" id="linearGradient-20">
            <stop stop-color="#232162" offset="0%"></stop>
            <stop stop-color="#000000" offset="100%"></stop>
        </linearGradient>
        <path d="M33.6511343,1.18636364 C18.8218806,8.84851515 13.8905373,17.6021212 10.3505373,32.260303 L10.3505373,32.260303 C7.99053731,42.0324242 -1.60797015,51.2772727 0.584716418,64.2393939 L0.584716418,64.2393939 C3.96620896,84.2142424 14.7447164,120.93 6.74889552,142.873333 L6.74889552,142.873333 C-10.1048507,189.211818 52.6720299,175.705727 52.9450149,150.026667 L52.9450149,150.026667 C53.694403,79.6884848 62.5699403,66.2342424 56.9781493,41.9445455 L56.9781493,41.9445455 C56.9781493,41.9445455 45.1948806,0.769818182 35.3189851,0.769818182 L35.3189851,0.769818182 C34.755403,0.769818182 34.1988657,0.903393939 33.6511343,1.18636364" id="path-21"></path>
        <path d="M1.364,1.77 L1.364,1.12 L1.364,1.77 Z" id="path-23"></path>
        <path d="M28.46725,8.195625 C24.8885,23.2209375 16.891,35.2940625 7.60725,34.5890625 L7.60725,34.5890625 C2.75975,34.2013125 0.9835,31.7955 0.39725,29.5835625 L0.39725,29.5835625 C0.44975,30.0418125 0.50225,30.4648125 0.581,30.9680063 L0.581,30.9680063 C3.941,50.9979375 14.651,87.8165625 6.706,109.821375 L6.706,109.821375 C-10.040625,156.289688 52.33725,142.744875 52.6085,116.99475 L52.6085,116.99475 C52.905125,88.3100625 54.541375,69.0538687 55.99475,54.67275 L55.99475,54.67275 L51.3485,5.7369375 C51.3485,5.7369375 43.787625,0.814275 37.253125,0.814275 L37.253125,0.814275 C33.345375,0.814275 29.806,2.57325 28.46725,8.195625" id="path-25"></path>
        <path d="M11.7704848,13.7292308 C3.74627273,21.6288462 -4.26739394,43.47 4.57321212,45.7346154 L4.57321212,45.7346154 C13.4138182,47.9992308 10.6271818,28.5553846 18.9765455,18.3115385 L18.9765455,18.3115385 C27.3241515,8.06769231 29.1177576,7.11230769 27.7644242,3.32615385 L27.7644242,3.32615385 L15.4877576,0.0884615385 C15.4877576,0.0884615385 19.7938182,5.82961538 11.7704848,13.7292308" id="path-27"></path>
        <path d="M1.33817021,4.66909091 C1.33817021,4.66909091 0.753702128,6.25745455 0.116893617,8.34327273 L0.116893617,8.34327273 C1.23,8.88610909 2.40068085,9.30152727 3.60625532,9.58254545 L3.60625532,9.58254545 C4.82753191,9.70472727 2.26285106,15.9185455 2.73391489,17.3847273 L2.73391489,17.3847273 C3.19451064,18.8168727 0.683914894,20.1565091 0.0863617021,19.7314909 L0.0863617021,19.7314909 C1.06774468,20.5623273 2.17648936,21.2282182 3.3707234,21.7047273 L3.3707234,21.7047273 C3.81474468,21.8906182 4.22212766,22.1533091 4.57455319,22.4814545 L4.57455319,22.4814545 C4.57455319,22.4814545 2.65540426,10.0712727 10.0101064,11.4152727 L10.0101064,11.4152727 C17.3630638,12.7601455 24.4813617,17.6727273 22.2743404,24.2967273 L22.2743404,24.2967273 C20.5296596,29.5330909 18.1472979,30.9818182 15.4526383,30.816 L15.4526383,30.816 C15.828617,30.9294545 16.1941277,31.0516364 16.5770851,31.1476364 L16.5770851,31.1476364 C16.933,31.2366545 17.2749574,31.3684364 17.5977234,31.5403636 L17.5977234,31.5403636 C18.7684043,31.8685091 19.8945957,32.3406545 20.948383,32.9454545 L20.948383,32.9454545 C22.7715745,34.2894545 23.9143404,33.7134545 22.6930638,41.6727273 L22.6930638,41.6727273 C21.8207234,47.3454545 28.328383,47.7818182 32.1405106,47.4938182 L32.1405106,47.4938182 C33.3077021,46.1969455 34.609234,45.0266182 36.0224255,44.0029091 L36.0224255,44.0029091 L39.3722128,35.2581818 C36.1628723,30.9277091 35.7310638,25.1362909 38.2643404,20.3781818 L38.2643404,20.3781818 C39.3442979,18.2661818 40.103234,16.0032 40.5149787,13.6669091 L40.5149787,13.6669091 L40.4626383,12.7156364 L28.6415532,3.82167273 L6.95691489,0.654545455 L2.90751064,0.218181818 C2.17910638,1.62152727 1.65046809,3.11912727 1.33817021,4.66909091" id="path-29"></path>
        <linearGradient x1="-9.29749238%" y1="107.056721%" x2="183.31037%" y2="-95.466544%" id="linearGradient-31">
            <stop stop-color="#F68E6B" offset="0%"></stop>
            <stop stop-color="#F9AA8E" offset="100%"></stop>
        </linearGradient>
        <path d="M12.3576585,4.07727273 C3.81336585,15.0327273 0.520682927,38.3795455 0.520682927,38.3795455 L0.520682927,38.3795455 L16.7127805,33.9034091 C16.7127805,33.9034091 24.3597073,17.9488636 34.7566829,12.2140909 L34.7566829,12.2140909 C38.5279024,10.1267045 28.6358049,0.406840909 19.9404878,0.407727273 L19.9404878,0.407727273 C17.117561,0.407727273 14.4193171,1.43325 12.3576585,4.07727273" id="path-32"></path>
        <path d="M7.75243636,43.3758273 C14.8826182,65.7834532 24.6754909,91.2805755 7.75243636,99.4519424 L7.75243636,99.4519424 C-9.16887273,107.623309 7.46530909,111.125324 15.8871273,114.443022 L15.8871273,114.443022 C23.8280727,117.567626 14.6391273,121.33295 13.5735273,121.745468 L13.5735273,121.745468 C34.5189818,121.15741 57.5860364,113.073813 43.4644364,85.9353957 L43.4644364,85.9353957 C27.6689455,55.5670504 24.1605818,32.3958273 27.2674909,9.70733813 L27.2674909,9.70733813 L12.5445818,0.623165468 C12.5445818,0.623165468 0.623127273,20.9682014 7.75243636,43.3758273" id="path-34"></path>
        <linearGradient x1="0.000428284632%" y1="49.9999496%" x2="230.391192%" y2="49.9999496%" id="linearGradient-36">
            <stop stop-color="#232162" offset="0%"></stop>
            <stop stop-color="#000000" offset="100%"></stop>
        </linearGradient>
        <path d="M0.43225,0.414342105 C16.767625,2.93565789 15.76225,29.6122368 12.68225,36.6119737 L12.68225,36.6119737 C9.401,44.0613158 -4.6515,67.9776711 9.5585,66.7178947 L9.5585,66.7178947 C23.767625,65.4572368 29.596,33.5617105 39.70225,42.0953947 L39.70225,42.0953947 C45.574375,46.95025 50.54525,52.8153947 54.38475,59.4184211 L54.38475,59.4184211 C54.38475,59.4184211 60.186,36.5855263 42.46725,23.1414474 L42.46725,23.1414474 C41.495125,22.2713289 40.728625,21.1949211 40.222,19.9915658 L40.222,19.9915658 C41.2405,22.5340395 48.96325,42.0469079 43.936375,36.6119737 L43.936375,36.6119737 C38.56475,30.8023684 30.74225,34.5402632 24.30225,36.6119737 L24.30225,36.6119737 C17.861375,38.6836842 22.673875,13.5498684 17.240125,6.31210526 L17.240125,6.31210526 C13.2755,1.03056579 6.146,0.316486842 2.582125,0.316486842 L2.582125,0.316486842 C1.262625,0.316486842 0.43225,0.414342105 0.43225,0.414342105 M40.222,19.9915658 C40.15375,19.8214211 40.116125,19.7279737 40.1135,19.7218026 L40.1135,19.7218026 C40.1485,19.8126053 40.184375,19.9025263 40.222,19.9915658" id="path-37"></path>
        <path d="M5.4985,0.697058824 C2.7055,0.697058824 0.440125,2.98058824 0.440125,5.79705882 L0.440125,5.79705882 L0.440125,54.2205882 C0.440125,57.0379412 2.7055,59.3205882 5.4985,59.3205882 L5.4985,59.3205882 L85.498875,59.3205882 C88.291875,59.3205882 90.55725,57.0379412 90.55725,54.2205882 L90.55725,54.2205882 L90.55725,5.79705882 C90.55725,2.98058824 88.291875,0.697058824 85.498875,0.697058824 L85.498875,0.697058824 L5.4985,0.697058824 Z" id="path-39"></path>
        <linearGradient x1="27.8476403%" y1="88.4774879%" x2="48.907676%" y2="51.8979122%" id="linearGradient-41">
            <stop stop-color="#70462A" offset="0%"></stop>
            <stop stop-color="#4F2A24" offset="100%"></stop>
        </linearGradient>
        <path d="M0.00263414634,2.24875 L0.00263414634,50.285375 C0.00263414634,53.07925 2.27590244,55.34375 5.07863415,55.34375 L5.07863415,55.34375 L33.1753171,55.34375 C36.5707317,55.34375 39.3225366,52.6015 39.3225366,49.21875 L39.3225366,49.21875 C39.3163902,44.513875 41.7670244,40.14325 45.7937561,37.68625 L45.7937561,37.68625 L71.4582439,22.19875 L0.205463415,0.847875 C0.0728780488,1.30375 0.00526829268,1.775375 0.00263414634,2.24875" id="path-42"></path>
        <linearGradient x1="0.0010948636%" y1="50.0007302%" x2="100.001101%" y2="50.0007302%" id="linearGradient-44">
            <stop stop-color="#70462A" offset="0%"></stop>
            <stop stop-color="#4F2A24" offset="100%"></stop>
        </linearGradient>
        <path d="M5.48975,0.702222222 C2.69675,0.702222222 0.43225,3.00266667 0.43225,5.84 L0.43225,5.84 L0.43225,17.9644444 C12.20975,25.4222222 34.22475,31.92 54.681375,31.92 L54.681375,31.92 C69.6535,31.92 79.63725,27.6444444 90.55725,23.3333333 L90.55725,23.3333333 L90.55725,5.84 C90.55725,3.00266667 88.291875,0.702222222 85.498875,0.702222222 L85.498875,0.702222222 L5.48975,0.702222222 Z" id="path-45"></path>
        <linearGradient x1="-0.000115339806%" y1="49.999887%" x2="99.9998847%" y2="49.999887%" id="linearGradient-47">
            <stop stop-color="#7C5033" offset="0%"></stop>
            <stop stop-color="#000000" offset="100%"></stop>
        </linearGradient>
        <path d="M1.25688889,0.4329 C1.02577778,0.4329 0.839111111,0.621 0.839111111,0.855 L0.839111111,0.855 L0.839111111,8.0559 C0.839111111,8.289 1.02577778,8.478 1.25688889,8.478 L1.25688889,8.478 L7.10577778,8.478 C7.336,8.478 7.52355556,8.289 7.52355556,8.0559 L7.52355556,8.0559 L7.52355556,0.855 C7.52355556,0.621 7.336,0.4329 7.10577778,0.4329 L7.10577778,0.4329 L1.25688889,0.4329 Z" id="path-48"></path>
        <linearGradient x1="95.7466919%" y1="-23.0516215%" x2="4.25330813%" y2="100%" id="linearGradient-50">
            <stop stop-color="#FFFFFF" offset="0%"></stop>
            <stop stop-color="#F96969" offset="100%"></stop>
        </linearGradient>
    </defs>
    <g id="切图" stroke="none" stroke-width="1" fill="none" fill-rule="evenodd">
        <g id="10%折扣页" transform="translate(-325.000000, -1263.000000)">
            <g id="Group-3" transform="translate(325.000000, 1263.000000)">
                <path d="M8,0 L690,0 C694.418278,-8.11624501e-16 698,3.581722 698,8 L698,60 L698,60 L0,60 L0,8 C-5.41083001e-16,3.581722 3.581722,8.11624501e-16 8,0 Z" id="Rectangle" fill="url(#linearGradient-1)"></path>
                <path d="M8,60 L690,60 C694.418278,60 698,63.581722 698,68 L698,584 L698,584 L0,584 L0,68 C-5.41083001e-16,63.581722 3.581722,60 8,60 Z" id="Rectangle-Copy-8" fill="#FCB8B8" transform="translate(349.000000, 322.000000) scale(1, -1) translate(-349.000000, -322.000000) "></path>
                <g id="Oval">
                    <use fill="black" fill-opacity="1" filter="url(#filter-3)" xlink:href="#path-2"></use>
                    <use fill="#FF2A54" fill-rule="evenodd" xlink:href="#path-2"></use>
                </g>
                <g id="Oval-Copy">
                    <use fill="black" fill-opacity="1" filter="url(#filter-5)" xlink:href="#path-4"></use>
                    <use fill="#FFC200" fill-rule="evenodd" xlink:href="#path-4"></use>
                </g>
                <g id="Oval-Copy-2">
                    <use fill="black" fill-opacity="1" filter="url(#filter-7)" xlink:href="#path-6"></use>
                    <use fill="#98DDBA" fill-rule="evenodd" xlink:href="#path-6"></use>
                </g>
                <g id="控件/选框/line" transform="translate(34.000000, 84.000000)" stroke="#FA4E4E" stroke-dasharray="6,6" stroke-width="4">
                    <use id="矩形-copy" mask="url(#mask-9)" xlink:href="#path-8"></use>
                </g>
                <rect id="Rectangle" fill="#FFE0E0" x="41" y="92" width="352" height="175" rx="7"></rect>
                <rect id="Rectangle-Copy-15" fill="#FFE0E0" x="41" y="385" width="352" height="175" rx="7"></rect>
                <path d="M48,385 L92,385 L92,385 L92,560 L48,560 C44.1340068,560 41,556.865993 41,553 L41,392 C41,388.134007 44.1340068,385 48,385 Z" id="Rectangle-Copy-16" fill="#FDD0D0"></path>
                <rect id="Rectangle-Copy-13" fill="#F98F8F" x="41" y="293" width="352" height="68" rx="7"></rect>
                <rect id="Rectangle-Copy-14" fill="#F98F8F" x="410" y="348" width="256" height="212" rx="7"></rect>
                <rect id="Rectangle-Copy-20" fill="#F98F8F" x="452" y="239" width="214" height="87" rx="7"></rect>
                <path d="M494.391686,292.593316 C496.221686,284.853316 504.821686,282.313316 511.841686,282.593316 C516.281372,282.894871 520.685411,283.59095 525.001686,284.673316 C529.521686,285.673316 534.001686,286.883316 538.441686,288.153316 C546.601686,290.483316 554.671686,293.293316 562.961686,295.153316 C569.861686,296.663316 577.371686,297.553316 584.251686,295.463316 C590.871686,293.463316 596.481686,288.523316 598.251686,281.703316 C599.951686,275.273316 597.621686,268.243316 591.391686,265.303316 C585.711686,262.633316 578.541686,263.993316 575.721686,270.053316 C572.551686,276.883316 575.721686,284.323316 580.721686,289.273316 C583.575179,291.956432 586.702295,294.332772 590.051686,296.363316 C593.451806,298.680774 597.237631,300.373898 601.231686,301.363316 C607.791686,302.773316 615.601686,300.703316 618.981686,294.443316 C619.730568,293.022456 620.183048,291.464291 620.311686,289.863316 C620.511686,287.683316 617.111686,287.703316 616.911686,289.863316 C616.331686,296.103316 609.031686,299.023316 603.571686,298.343316 C599.885433,297.739591 596.364552,296.377548 593.231686,294.343316 C590.204645,292.598426 587.33693,290.590691 584.661686,288.343316 C580.031686,284.343316 575.661686,277.733316 578.801686,271.483316 C581.331686,266.383316 587.931686,266.433316 591.951686,269.723316 C596.821686,273.723316 595.951686,280.923316 592.741686,285.643316 C589.191686,290.873316 582.741686,293.073316 576.681686,293.303316 C570.081686,293.563316 563.541686,292.053316 557.231686,290.303316 C549.401686,288.073316 541.641686,285.583316 533.771686,283.493316 C529.301686,282.303316 524.771686,281.233316 520.251686,280.393316 C515.950259,279.446625 511.532657,279.139987 507.141686,279.483316 C500.041686,280.303316 492.801686,284.433316 491.051686,291.833316 C490.551686,293.963316 493.831686,294.833316 494.331686,292.733316 L494.391686,292.593316 Z" id="路径" fill="#FA4E4E" fill-rule="nonzero"></path>
                <circle id="Oval" fill="#F95C5C" cx="629.5" cy="286.5" r="2.5"></circle>
                <rect id="Rectangle-Copy-14" stroke="#FFE4E4" stroke-width="2" x="423" y="359" width="230" height="190" rx="7"></rect>
                <path d="M367,237 C367.552285,237 368,237.447715 368,238 L368,242 C368,242.552285 367.552285,243 367,243 L68,243 C67.4477153,243 67,242.552285 67,242 L67,238 C67,237.447715 67.4477153,237 68,237 L367,237 Z M367,207 C367.552285,207 368,207.447715 368,208 L368,212 C368,212.552285 367.552285,213 367,213 L68,213 C67.4477153,213 67,212.552285 67,212 L67,208 C67,207.447715 67.4477153,207 68,207 L367,207 Z M367,177 C367.552285,177 368,177.447715 368,178 L368,182 C368,182.552285 367.552285,183 367,183 L68,183 C67.4477153,183 67,182.552285 67,182 L67,178 C67,177.447715 67.4477153,177 68,177 L367,177 Z M367,147 C367.552285,147 368,147.447715 368,148 L368,152 C368,152.552285 367.552285,153 367,153 L68,153 C67.4477153,153 67,152.552285 67,152 L67,148 C67,147.447715 67.4477153,147 68,147 L367,147 Z M367,117 C367.552285,117 368,117.447715 368,118 L368,122 C368,122.552285 367.552285,123 367,123 L68,123 C67.4477153,123 67,122.552285 67,122 L67,118 C67,117.447715 67.4477153,117 68,117 L367,117 Z" id="Combined-Shape" fill="#FDD0D0"></path>
                <rect id="Rectangle" fill="#FDD0D0" x="65" y="322" width="303" height="8" rx="4"></rect>
                <rect id="Rectangle-Copy-17" fill="#FDD0D0" x="185" y="439" width="185" height="6" rx="3"></rect>
                <rect id="Rectangle-Copy-19" fill="#FDD0D0" x="114" y="493" width="185" height="6" rx="3"></rect>
                <rect id="Rectangle-Copy-18" fill="#FDD0D0" x="114" y="466" width="256" height="6" rx="3"></rect>
                <g id="Group-4" transform="translate(163.000000, 250.000000)">
                    <g id="控件/快捷菜单" fill="#EB3231" opacity="0.847539993">
                        <polygon id="Triangle" transform="translate(53.500000, 35.000000) rotate(-180.000000) translate(-53.500000, -35.000000) " points="53.5 30 61 40 46 40"></polygon>
                        <path d="M3.8458278,-1.55376046e-16 L103.154172,1.55376046e-16 C104.49145,-9.02779573e-17 104.97638,0.139238417 105.465269,0.400699056 C105.954157,0.662159695 106.33784,1.04584256 106.599301,1.53473144 C106.860762,2.02362033 107,2.50854969 107,3.8458278 L107,26.1541722 C107,27.4914503 106.860762,27.9763797 106.599301,28.4652686 C106.33784,28.9541574 105.954157,29.3378403 105.465269,29.5993009 C104.97638,29.8607616 104.49145,30 103.154172,30 L3.8458278,30 C2.50854969,30 2.02362033,29.8607616 1.53473144,29.5993009 C1.04584256,29.3378403 0.662159695,28.9541574 0.400699056,28.4652686 C0.139238417,27.9763797 6.01853049e-17,27.4914503 -1.03584031e-16,26.1541722 L1.03584031e-16,3.8458278 C-6.01853049e-17,2.50854969 0.139238417,2.02362033 0.400699056,1.53473144 C0.662159695,1.04584256 1.04584256,0.662159695 1.53473144,0.400699056 C2.02362033,0.139238417 2.50854969,9.02779573e-17 3.8458278,-1.55376046e-16 Z" id="Rectangle"></path>
                    </g>
                    <g id="1-appicon/快捷菜单/删除" transform="translate(74.000000, 3.000000)" fill="#FFFFFF">
                        <path d="M18.5771,8.7695 C18.8531,8.7695 19.0771,8.9935 19.0771,9.2695 L19.0771,9.2695 L19.0771,20.4995 C19.0771,20.7765 18.8531,20.9995 18.5771,20.9995 L18.5771,20.9995 L5.0331,20.9995 C4.7571,20.9995 4.5331,20.7765 4.5331,20.4995 L4.5331,20.4995 L4.5331,9.2695 C4.5331,8.9935 4.7571,8.7695 5.0331,8.7695 C5.3091,8.7695 5.5331,8.9935 5.5331,9.2695 L5.5331,9.2695 L5.5331,19.9995 L18.0771,19.9995 L18.0771,9.2695 C18.0771,8.9935 18.3011,8.7695 18.5771,8.7695 Z M9.3506,9.6999 C9.6266,9.6999 9.8506,9.9239 9.8506,10.1999 L9.8506,10.1999 L9.8506,17.7139 C9.8506,17.9899 9.6266,18.2139 9.3506,18.2139 C9.0746,18.2139 8.8506,17.9899 8.8506,17.7139 L8.8506,17.7139 L8.8506,10.1999 C8.8506,9.9239 9.0746,9.6999 9.3506,9.6999 Z M14.2598,9.6999 C14.5358,9.6999 14.7598,9.9239 14.7598,10.1999 L14.7598,10.1999 L14.7598,17.7139 C14.7598,17.9899 14.5358,18.2139 14.2598,18.2139 C13.9838,18.2139 13.7598,17.9899 13.7598,17.7139 L13.7598,17.7139 L13.7598,10.1999 C13.7598,9.9239 13.9838,9.6999 14.2598,9.6999 Z M15.687,3 C15.963,3 16.187,3.224 16.187,3.5 L16.187,3.5 L16.187,6.311 L20.11,6.311 C20.387,6.311 20.61,6.534 20.61,6.811 C20.61,7.087 20.387,7.311 20.11,7.311 L20.11,7.311 L3.5,7.311 C3.224,7.311 3,7.087 3,6.811 C3,6.534 3.224,6.311 3.5,6.311 L3.5,6.311 L7.424,6.311 L7.424,3.5 C7.424,3.224 7.647,3 7.924,3 L7.924,3 Z M15.187,4 L8.424,4 L8.424,6.311 L15.187,6.311 L15.187,4 Z" id="Combined-Shape"></path>
                    </g>
                    <g id="1-appicon/快捷菜单/填充色" transform="translate(10.000000, 3.000000)">
                        <g id="Group-9" transform="translate(3.000000, 3.000000)">
                            <g id="Group-3" transform="translate(0.000000, -0.000500)">
                                <mask id="mask-11" fill="white">
                                    <use xlink:href="#path-10"></use>
                                </mask>
                                <g id="Clip-2"></g>
                                <path d="M10.5166,16.709 L2.2296,16.709 C0.9996,16.709 -0.0004,15.709 -0.0004,14.48 L-0.0004,2.23 C-0.0004,1.001 0.9996,0.001 2.2296,0.001 L14.4786,0.001 C15.7076,0.001 16.7076,1.001 16.7076,2.23 L16.7076,9.977 C16.7076,10.253 16.4846,10.477 16.2076,10.477 C15.9316,10.477 15.7076,10.253 15.7076,9.977 L15.7076,2.23 C15.7076,1.552 15.1566,1.001 14.4786,1.001 L2.2296,1.001 C1.5516,1.001 0.9996,1.552 0.9996,2.23 L0.9996,14.48 C0.9996,15.157 1.5516,15.709 2.2296,15.709 L10.5166,15.709 C10.7926,15.709 11.0166,15.933 11.0166,16.209 C11.0166,16.485 10.7926,16.709 10.5166,16.709" id="Fill-1" fill="#FFFFFF" mask="url(#mask-11)"></path>
                            </g>
                            <g id="Group-6" transform="translate(11.000000, 9.999500)">
                                <mask id="mask-13" fill="white">
                                    <use xlink:href="#path-12"></use>
                                </mask>
                                <g id="Clip-5"></g>
                                <path d="M3.5781,2.1602 C2.8721,2.8732 1.7541,4.2102 1.7541,5.1812 C1.7541,6.1842 2.5701,7.0002 3.5731,7.0002 C4.5761,7.0002 5.3911,6.1842 5.3911,5.1812 C5.3911,4.1702 4.2811,2.8562 3.5781,2.1602 M3.5731,8.0002 C2.0181,8.0002 0.7541,6.7352 0.7541,5.1812 C0.7541,3.3882 2.9841,1.3292 3.2391,1.0992 C3.4271,0.9312 3.7121,0.9292 3.9011,1.0952 C4.1561,1.3162 6.3911,3.3182 6.3911,5.1812 C6.3911,6.7352 5.1271,8.0002 3.5731,8.0002" id="Fill-4" fill="#FFFFFF" mask="url(#mask-13)"></path>
                            </g>
                            <path d="M14.1113,10.3891 C14.2883,10.2291 14.5263,10.1861 14.7433,10.2421 L14.7433,2.5731 C14.7433,2.2431 14.4763,1.9761 14.1463,1.9761 L2.5853,1.9761 C2.2553,1.9761 1.9883,2.2431 1.9883,2.5731 L1.9883,14.1351 C1.9883,14.4641 2.2553,14.7321 2.5853,14.7321 L11.1913,14.7321 C11.5873,12.7191 13.8333,10.6391 14.1113,10.3891" id="Fill-7" fill="#FFFFFF" opacity="0.498418899"></path>
                        </g>
                    </g>
                    <g id="1-appicon/快捷菜单/确认" transform="translate(42.000000, 3.000000)" fill="#FFFFFF">
                        <path d="M12,3 C16.963,3 21,7.037 21,12 C21,16.963 16.963,21 12,21 C7.037,21 3,16.963 3,12 C3,7.037 7.037,3 12,3 Z M12,4 C7.589,4 4,7.589 4,12 C4,16.411 7.589,20 12,20 C16.411,20 20,16.411 20,12 C20,7.589 16.411,4 12,4 Z M17.0918,8.4129 C17.2978,8.5969 17.3178,8.9129 17.1338,9.1189 L11.4228,15.5449 C11.3238,15.6549 11.1868,15.7129 11.0488,15.7129 C10.9428,15.7129 10.8358,15.6799 10.7458,15.6099 L6.9378,12.7119 C6.7178,12.5449 6.6748,12.2319 6.8428,12.0119 C7.0088,11.7919 7.3228,11.7489 7.5428,11.9169 L10.9828,14.5339 L16.3858,8.4549 C16.5688,8.2479 16.8868,8.2309 17.0918,8.4129 Z" id="Combined-Shape"></path>
                    </g>
                </g>
                <path d="M168.902517,403.900078 L168.902517,408.939351 C168.902517,409.278525 168.703973,409.586376 168.401686,409.736722 C162.253993,412.814339 159.180146,416.720648 159.180146,421.456544 C159.180146,421.929955 159.223074,422.587718 159.308036,423.42894 C159.390316,424.239734 160.071803,424.86349 160.885652,424.86349 L167.416124,424.86349 C168.290788,424.86349 169,425.573159 169,426.447492 L169,443.415103 C169,444.290331 168.290788,445 167.416124,445 L149.583876,445 C148.709212,445 148,444.290331 148,443.415103 L148,427.781812 C148,414.397445 154.601124,406.144528 167.805162,403.023955 C168.36323,402.891508 168.902517,403.325542 168.902517,403.900078 M139,403.900462 L139,408.673837 C139,409.045289 138.758767,409.373777 138.406892,409.506246 C131.965236,411.930974 128.746675,415.914008 128.746675,421.452663 C128.746675,422.036244 128.770254,422.676215 128.816505,423.376155 C128.872733,424.206774 129.577388,424.86017 130.422612,424.86017 L137.098247,424.86017 C137.985187,424.86017 138.704353,425.569956 138.704353,426.444433 L138.704353,443.414842 C138.704353,444.290214 137.985187,445 137.098247,445 L119.607013,445 C118.719166,445 118,444.290214 118,443.414842 L118,427.778973 C118,414.461319 124.62757,406.209727 137.880895,403.02509 C138.448609,402.88904 139,403.324041 139,403.900462" id="Fill-1" fill="#FFC7C7"></path>
                <g id="控件/选框/网格" transform="translate(410.000000, 84.000000)" stroke="#FC7777" stroke-width="2">
                    <rect id="矩形" x="4" y="5" width="250" height="66" rx="2"></rect>
                    <line x1="4" y1="25.773913" x2="254" y2="25.6086957" id="路径-2" stroke-linecap="square"></line>
                    <line x1="4" y1="50.3913043" x2="254" y2="50.3913043" id="路径-2备份" stroke-linecap="square"></line>
                    <line x1="54.8861789" y1="38.5" x2="119.886179" y2="38.5" id="路径-2" stroke-linecap="square" transform="translate(87.386179, 38.500000) rotate(90.000000) translate(-87.386179, -38.500000) "></line>
                    <line x1="139.087398" y1="38.5264228" x2="203.087398" y2="37.4735772" id="路径-2备份" stroke-linecap="square" transform="translate(171.087398, 38.000000) rotate(90.000000) translate(-171.087398, -38.000000) "></line>
                </g>
                <rect id="Rectangle" fill="#FDD0D0" x="423" y="95" width="65" height="9" rx="1"></rect>
                <rect id="Rectangle-Copy-21" fill="#FDD0D0" x="507" y="95" width="65" height="9" rx="1"></rect>
                <rect id="Rectangle-Copy-22" fill="#FDD0D0" x="591" y="95" width="65" height="9" rx="1"></rect>
                <rect id="Rectangle-Copy-23" fill="#FDD0D0" x="507" y="117" width="65" height="9" rx="1"></rect>
                <g id="Group-86" transform="translate(273.000000, 180.000000)">
                    <g id="Group-15" transform="translate(0.000000, 54.000000)">
                        <g id="Group-8" transform="translate(64.500000, 39.000000) rotate(5.000000) translate(-64.500000, -39.000000) translate(3.000000, 6.000000)">
                            <g id="Group-6">
                                <path d="M25.6457211,42.8878125 C25.6457211,42.8878125 16.1080914,36.0582207 4.29623958,38.4873023 C-7.51561227,40.9163839 8.58023958,42.3685523 10.3872766,44.0055421 C12.1943137,45.6425319 10.8720914,58.9056696 31.8072766,58.6680421" id="Fill-1" fill="#F9AA8F"></path>
                                <path d="M122.617323,-6.39488462e-14 C122.617323,-6.39488462e-14 75.3787299,74.8086735 25.6543596,42.8873724 C25.6543596,42.8873724 24.1734707,54.6895408 29.5945818,57.6378827 C35.0156929,60.5862245 76.374804,77.7922194 112.806434,48.7928571" id="Fill-3" fill="#232262"></path>
                            </g>
                        </g>
                        <g id="Group-7" transform="translate(218.081481, 328.316327)">
                            <mask id="mask-15" fill="white">
                                <use xlink:href="#path-14"></use>
                            </mask>
                            <g id="Clip-6"></g>
                            <path d="M0.840757037,0.466630102 L12.5909052,18.552727 C13.2432015,19.6458138 13.1259644,21.0328546 12.3000163,22.002727 L6.50868296,28.8235179 C5.89957926,29.5821658 6.02210519,30.6902143 6.78194222,31.2974847 C7.08252741,31.5386327 7.45451259,31.6741684 7.83972,31.6838495 L19.5810533,31.6838495 C21.1686015,31.6644872 22.4396978,30.3654566 22.4203052,28.7803929 C22.4167793,28.436273 22.3497867,28.0965536 22.2254978,27.7753163 L10.7045348,0.492153061" id="Fill-5" fill="#171540" mask="url(#mask-15)"></path>
                        </g>
                        <g id="Group-10" transform="translate(113.185185, 328.316327)">
                            <mask id="mask-17" fill="white">
                                <use xlink:href="#path-16"></use>
                            </mask>
                            <g id="Clip-9"></g>
                            <path d="M7.38126148,0.466630102 L10.2813356,18.517523 C10.5651726,20.2768469 9.89524667,22.0546531 8.51837259,23.1899847 L0.664372593,29.6508138 C0.172505926,30.0477398 0.0966985185,30.7694235 0.495128148,31.2596403 C0.715498519,31.5307117 1.04693556,31.6873699 1.39600222,31.6839076 L13.542817,31.6839076 C15.8355504,31.6812092 17.6928319,29.8233138 17.6901902,27.5341684 C17.6901902,27.4716811 17.6884244,27.4074337 17.68578,27.3449464 L16.4164467,0.466630102" id="Fill-8" fill="#16143C" mask="url(#mask-17)"></path>
                        </g>
                        <path d="M129.593081,328.782957 C130.968193,302.872753 137.861378,199.258339 160.321526,186.356043 C205.832415,160.217013 179.563385,112.964334 179.563385,112.964334 C179.563385,112.964334 190.221378,31.7045128 137.147378,126.29788 C99.5521926,193.300048 115.260193,299.563569 120.566711,328.782957 L129.593081,328.782957 Z" id="Fill-11" fill="#5166AB"></path>
                        <path d="M218.922239,328.782957 L228.821276,328.782957 C221.055424,312.800304 191.658016,248.579258 194.655053,198.466247 C196.091868,174.562676 212.787127,140.599538 189.480757,113.325176 C172.952979,93.9629311 142.472231,117.039207 142.472231,117.039207 C142.472231,117.039207 142.806313,155.517268 148.042313,189.532332 C153.569201,225.466898 200.278905,300.09075 218.922239,328.782957" id="Fill-13" fill="#445BA6"></path>
                    </g>
                    <g id="Group-18" transform="translate(109.000000, 55.000000)">
                        <mask id="mask-19" fill="white">
                            <use xlink:href="#path-18"></use>
                        </mask>
                        <g id="Clip-17"></g>
                        <path d="M9.891,32.8952601 C-2.01775,60.0268208 -0.3465,133.206474 0.92225,145.480694 L0.92225,145.480694 C2.191,157.754035 33.8485,148.80185 38.91475,138.645087 L38.91475,138.645087 C43.981875,128.488324 60.9035,15.3054335 33.31475,0.535953757 L33.31475,0.535953757 C33.12925,0.435791908 32.9245,0.387468208 32.70225,0.387468208 L32.70225,0.387468208 C27.384875,0.38483237 12.075,27.9108902 9.891,32.8952601" id="Fill-16" fill="url(#linearGradient-20)" mask="url(#mask-19)"></path>
                    </g>
                    <g id="Group-21" transform="translate(118.000000, 48.000000)">
                        <mask id="mask-22" fill="white">
                            <use xlink:href="#path-21"></use>
                        </mask>
                        <g id="Clip-20"></g>
                        <path d="M33.6511343,1.18636364 C18.8218806,8.84851515 13.8905373,17.6021212 10.3505373,32.260303 L10.3505373,32.260303 C7.99053731,42.0324242 -1.60797015,51.2772727 0.584716418,64.2393939 L0.584716418,64.2393939 C3.96620896,84.2142424 14.7447164,120.93 6.74889552,142.873333 L6.74889552,142.873333 C-10.1048507,189.211818 52.6720299,175.705727 52.9450149,150.026667 L52.9450149,150.026667 C53.694403,79.6884848 62.5699403,66.2342424 56.9781493,41.9445455 L56.9781493,41.9445455 C56.9781493,41.9445455 45.1948806,0.769818182 35.3189851,0.769818182 L35.3189851,0.769818182 C34.755403,0.769818182 34.1988657,0.903393939 33.6511343,1.18636364" id="Fill-19" mask="url(#mask-22)"></path>
                    </g>
                    <g id="Group-24" transform="translate(117.000000, 106.000000)">
                        <mask id="mask-24" fill="white">
                            <use xlink:href="#path-23"></use>
                        </mask>
                        <g id="Clip-23"></g>
                        <path d="M1.364,1.77 L1.364,1.12 L1.364,1.77 Z" id="Fill-22" mask="url(#mask-24)"></path>
                    </g>
                    <g id="Group-27" transform="translate(118.000000, 81.000000)">
                        <mask id="mask-26" fill="white">
                            <use xlink:href="#path-25"></use>
                        </mask>
                        <g id="Clip-26"></g>
                        <path d="M28.46725,8.195625 C24.8885,23.2209375 16.891,35.2940625 7.60725,34.5890625 L7.60725,34.5890625 C2.75975,34.2013125 0.9835,31.7955 0.39725,29.5835625 L0.39725,29.5835625 C0.44975,30.0418125 0.50225,30.4648125 0.581,30.9680063 L0.581,30.9680063 C3.941,50.9979375 14.651,87.8165625 6.706,109.821375 L6.706,109.821375 C-10.040625,156.289688 52.33725,142.744875 52.6085,116.99475 L52.6085,116.99475 C52.905125,88.3100625 54.541375,69.0538687 55.99475,54.67275 L55.99475,54.67275 L51.3485,5.7369375 C51.3485,5.7369375 43.787625,0.814275 37.253125,0.814275 L37.253125,0.814275 C33.345375,0.814275 29.806,2.57325 28.46725,8.195625" id="Fill-25" mask="url(#mask-26)"></path>
                    </g>
                    <path d="M135.529652,46 C135.529652,46 139.763114,51.762703 131.875915,59.6919692 C123.986989,67.6212354 116.107566,89.544369 124.799122,91.8174845 C133.491543,94.0906001 130.751888,74.5737723 138.95962,64.2914764 C147.167352,54.0091804 148.929855,53.0502098 147.599338,49.2498448" id="Fill-28" fill="#594C43"></path>
                    <g id="Group-32" transform="translate(120.000000, 46.000000)">
                        <mask id="mask-28" fill="white">
                            <use xlink:href="#path-27"></use>
                        </mask>
                        <g id="Clip-31"></g>
                        <path d="M11.7704848,13.7292308 C3.74627273,21.6288462 -4.26739394,43.47 4.57321212,45.7346154 L4.57321212,45.7346154 C13.4138182,47.9992308 10.6271818,28.5553846 18.9765455,18.3115385 L18.9765455,18.3115385 C27.3241515,8.06769231 29.1177576,7.11230769 27.7644242,3.32615385 L27.7644242,3.32615385 L15.4877576,0.0884615385 C15.4877576,0.0884615385 19.7938182,5.82961538 11.7704848,13.7292308" id="Fill-30" fill="#7E1E17" mask="url(#mask-28)"></path>
                    </g>
                    <path d="M164.496266,53.9124262 C160.959916,49.5136504 160.380445,43.4143668 163.025705,38.4220424 C164.770246,34.9567404 165.670965,31.1224521 165.651708,27.2379676 C165.651708,14.7769709 156.653271,9 145.519019,9 C135.890342,9 127.881034,13.3327282 125.894025,22.5794042 C125.894025,22.5794042 122.559001,31.6939848 123.049188,35.1020454 C123.399322,37.5414065 126.305432,39.0825192 127.933554,39.7606088 C128.634696,40.0336059 129.243054,40.5038654 129.684222,41.1167879 C132.424018,45.1835641 136.550344,48.1002299 141.282401,49.3155073 C143.650181,49.9310717 145.184642,52.2321731 144.853765,54.669773 L140.862241,86.6632719 C144.284798,90.943162 156.740805,52.8556633 171,61.2393161 C170.982493,61.2393161 167.997603,58.1306717 164.496266,53.9124262" id="Fill-33" fill="#F9AA8F"></path>
                    <g id="Group-37" transform="translate(125.000000, 18.000000)">
                        <mask id="mask-30" fill="white">
                            <use xlink:href="#path-29"></use>
                        </mask>
                        <g id="Clip-36"></g>
                        <path d="M1.33817021,4.66909091 C1.33817021,4.66909091 0.753702128,6.25745455 0.116893617,8.34327273 L0.116893617,8.34327273 C1.23,8.88610909 2.40068085,9.30152727 3.60625532,9.58254545 L3.60625532,9.58254545 C4.82753191,9.70472727 2.26285106,15.9185455 2.73391489,17.3847273 L2.73391489,17.3847273 C3.19451064,18.8168727 0.683914894,20.1565091 0.0863617021,19.7314909 L0.0863617021,19.7314909 C1.06774468,20.5623273 2.17648936,21.2282182 3.3707234,21.7047273 L3.3707234,21.7047273 C3.81474468,21.8906182 4.22212766,22.1533091 4.57455319,22.4814545 L4.57455319,22.4814545 C4.57455319,22.4814545 2.65540426,10.0712727 10.0101064,11.4152727 L10.0101064,11.4152727 C17.3630638,12.7601455 24.4813617,17.6727273 22.2743404,24.2967273 L22.2743404,24.2967273 C20.5296596,29.5330909 18.1472979,30.9818182 15.4526383,30.816 L15.4526383,30.816 C15.828617,30.9294545 16.1941277,31.0516364 16.5770851,31.1476364 L16.5770851,31.1476364 C16.933,31.2366545 17.2749574,31.3684364 17.5977234,31.5403636 L17.5977234,31.5403636 C18.7684043,31.8685091 19.8945957,32.3406545 20.948383,32.9454545 L20.948383,32.9454545 C22.7715745,34.2894545 23.9143404,33.7134545 22.6930638,41.6727273 L22.6930638,41.6727273 C21.8207234,47.3454545 28.328383,47.7818182 32.1405106,47.4938182 L32.1405106,47.4938182 C33.3077021,46.1969455 34.609234,45.0266182 36.0224255,44.0029091 L36.0224255,44.0029091 L39.3722128,35.2581818 C36.1628723,30.9277091 35.7310638,25.1362909 38.2643404,20.3781818 L38.2643404,20.3781818 C39.3442979,18.2661818 40.103234,16.0032 40.5149787,13.6669091 L40.5149787,13.6669091 L40.4626383,12.7156364 L28.6415532,3.82167273 L6.95691489,0.654545455 L2.90751064,0.218181818 C2.17910638,1.62152727 1.65046809,3.11912727 1.33817021,4.66909091" id="Fill-35" fill="url(#linearGradient-31)" mask="url(#mask-30)"></path>
                    </g>
                    <g id="Group-40" transform="translate(137.000000, 51.000000)">
                        <mask id="mask-33" fill="white">
                            <use xlink:href="#path-32"></use>
                        </mask>
                        <g id="Clip-39"></g>
                        <path d="M12.3576585,4.07727273 C3.81336585,15.0327273 0.520682927,38.3795455 0.520682927,38.3795455 L0.520682927,38.3795455 L16.7127805,33.9034091 C16.7127805,33.9034091 24.3597073,17.9488636 34.7566829,12.2140909 L34.7566829,12.2140909 C38.5279024,10.1267045 28.6358049,0.406840909 19.9404878,0.407727273 L19.9404878,0.407727273 C17.117561,0.407727273 14.4193171,1.43325 12.3576585,4.07727273" id="Fill-38" mask="url(#mask-33)"></path>
                    </g>
                    <path d="M186.202143,73.0038814 C186.202143,73.0038814 168.349555,52.6831121 160.835898,67.2705841 C157.128053,74.5029545 152.395936,91.86941 144.321598,108.97287 C132.373222,134.273017 136.300616,200.539063 137.988784,207.622403 C139.677826,214.705743 219.178261,222.29754 195.649757,177.193848 C173.38869,134.457114 175.513332,106.03609 186.202143,73.0038814" id="Fill-41" fill="#232262"></path>
                    <g id="Group-45" transform="translate(152.000000, 91.000000)">
                        <mask id="mask-35" fill="white">
                            <use xlink:href="#path-34"></use>
                        </mask>
                        <g id="Clip-44"></g>
                        <path d="M7.75243636,43.3758273 C14.8826182,65.7834532 24.6754909,91.2805755 7.75243636,99.4519424 L7.75243636,99.4519424 C-9.16887273,107.623309 7.46530909,111.125324 15.8871273,114.443022 L15.8871273,114.443022 C23.8280727,117.567626 14.6391273,121.33295 13.5735273,121.745468 L13.5735273,121.745468 C34.5189818,121.15741 57.5860364,113.073813 43.4644364,85.9353957 L43.4644364,85.9353957 C27.6689455,55.5670504 24.1605818,32.3958273 27.2674909,9.70733813 L27.2674909,9.70733813 L12.5445818,0.623165468 C12.5445818,0.623165468 0.623127273,20.9682014 7.75243636,43.3758273" id="Fill-43" fill="url(#linearGradient-36)" mask="url(#mask-35)"></path>
                    </g>
                    <g id="Group-50" transform="translate(123.000000, 0.000000)">
                        <path d="M55.1123148,113.176624 C88.2127778,132.096624 83.4363889,196.336624 83.4363889,196.336624 L90.8683796,197.551024 C94.7308333,176.307824 97.1937963,145.252624 91.5817593,128.031024 C68.3419444,56.689424 45.3308333,63.139824 45.3308333,63.139824 L41.935463,86.565424 C40.4339352,97.303184 45.6633333,107.864944 55.1123148,113.176624" id="Fill-46" fill="#232262"></path>
                        <path d="M2.2816713,17.089512 C1.97380093,17.687912 1.61315278,18.259912 1.25250463,18.849512 C0.0562083333,20.688712 -1.60629167,25.546312 14.5964861,24.877512 C34.5376898,24.059112 33.6052824,53.750312 30.3066713,61.186312 C27.0080602,68.622312 12.8812083,92.496712 27.1663935,91.238312 C41.4515787,89.979912 47.309912,58.141512 57.4696343,66.659912 C63.3728287,71.505192 68.3700046,77.359832 72.2298194,83.951912 C72.2298194,83.951912 78.0969491,61.159912 60.2844491,47.739912 C53.097875,42.327912 53.810375,3.907112 32.1890787,0.791912 C13.5057454,-1.918488 4.42796759,12.944712 2.2816713,17.089512" id="Fill-48" fill="#8E241D"></path>
                    </g>
                    <g id="Group-53" transform="translate(140.000000, 25.000000)">
                        <mask id="mask-38" fill="white">
                            <use xlink:href="#path-37"></use>
                        </mask>
                        <g id="Clip-52"></g>
                        <path d="M0.43225,0.414342105 C16.767625,2.93565789 15.76225,29.6122368 12.68225,36.6119737 L12.68225,36.6119737 C9.401,44.0613158 -4.6515,67.9776711 9.5585,66.7178947 L9.5585,66.7178947 C23.767625,65.4572368 29.596,33.5617105 39.70225,42.0953947 L39.70225,42.0953947 C45.574375,46.95025 50.54525,52.8153947 54.38475,59.4184211 L54.38475,59.4184211 C54.38475,59.4184211 60.186,36.5855263 42.46725,23.1414474 L42.46725,23.1414474 C41.495125,22.2713289 40.728625,21.1949211 40.222,19.9915658 L40.222,19.9915658 C41.2405,22.5340395 48.96325,42.0469079 43.936375,36.6119737 L43.936375,36.6119737 C38.56475,30.8023684 30.74225,34.5402632 24.30225,36.6119737 L24.30225,36.6119737 C17.861375,38.6836842 22.673875,13.5498684 17.240125,6.31210526 L17.240125,6.31210526 C13.2755,1.03056579 6.146,0.316486842 2.582125,0.316486842 L2.582125,0.316486842 C1.262625,0.316486842 0.43225,0.414342105 0.43225,0.414342105 M40.222,19.9915658 C40.15375,19.8214211 40.116125,19.7279737 40.1135,19.7218026 L40.1135,19.7218026 C40.1485,19.8126053 40.184375,19.9025263 40.222,19.9915658" id="Fill-51" fill="#7E1E17" mask="url(#mask-38)"></path>
                    </g>
                    <path d="M253.892902,279 L173.107098,279 C170.286707,279 168,276.740759 168,273.954244 L168,226.045756 C168,223.258368 170.286707,221 173.107098,221 L253.892902,221 C256.713293,221 259,223.258368 259,226.045756 L259,273.954244 C259,276.740759 256.713293,279 253.892902,279" id="Fill-54" fill="#70462A"></path>
                    <g id="Group-58" transform="translate(168.000000, 220.000000)">
                        <mask id="mask-40" fill="white">
                            <use xlink:href="#path-39"></use>
                        </mask>
                        <g id="Clip-57"></g>
                        <path d="M5.4985,0.697058824 C2.7055,0.697058824 0.440125,2.98058824 0.440125,5.79705882 L0.440125,5.79705882 L0.440125,54.2205882 C0.440125,57.0379412 2.7055,59.3205882 5.4985,59.3205882 L5.4985,59.3205882 L85.498875,59.3205882 C88.291875,59.3205882 90.55725,57.0379412 90.55725,54.2205882 L90.55725,54.2205882 L90.55725,5.79705882 C90.55725,2.98058824 88.291875,0.697058824 85.498875,0.697058824 L85.498875,0.697058824 L5.4985,0.697058824 Z" id="Fill-56" fill="url(#linearGradient-41)" mask="url(#mask-40)"></path>
                    </g>
                    <path d="M185.106464,221 L253.892653,221 C256.713576,221 259,223.259241 259,226.045756 L259,273.954244 C259,276.741632 256.713576,279 253.892653,279 L185.106464,279 C182.286424,279 180,276.741632 180,273.954244 L180,226.045756 C180,223.259241 182.286424,221 185.106464,221" id="Fill-59" fill="#70462A"></path>
                    <g id="Group-63" transform="translate(180.000000, 224.000000)">
                        <mask id="mask-43" fill="white">
                            <use xlink:href="#path-42"></use>
                        </mask>
                        <g id="Clip-62"></g>
                        <path d="M0.00263414634,2.24875 L0.00263414634,50.285375 C0.00263414634,53.07925 2.27590244,55.34375 5.07863415,55.34375 L5.07863415,55.34375 L33.1753171,55.34375 C36.5707317,55.34375 39.3225366,52.6015 39.3225366,49.21875 L39.3225366,49.21875 C39.3163902,44.513875 41.7670244,40.14325 45.7937561,37.68625 L45.7937561,37.68625 L71.4582439,22.19875 L0.205463415,0.847875 C0.0728780488,1.30375 0.00526829268,1.775375 0.00263414634,2.24875" id="Fill-61" fill="url(#linearGradient-44)" mask="url(#mask-43)"></path>
                    </g>
                    <path d="M173.106602,221 L253.892515,221 C256.713515,221 259,223.284396 259,226.101936 L259,243.473235 C247.973981,247.754271 237.893301,252 222.776699,252 C202.120583,252 179.891845,245.547551 168,238.1418 L168,226.101936 C168,223.284396 170.286485,221 173.106602,221" id="Fill-64" fill="#7C5133"></path>
                    <g id="Group-68" transform="translate(168.000000, 220.000000)">
                        <mask id="mask-46" fill="white">
                            <use xlink:href="#path-45"></use>
                        </mask>
                        <g id="Clip-67"></g>
                        <path d="M5.48975,0.702222222 C2.69675,0.702222222 0.43225,3.00266667 0.43225,5.84 L0.43225,5.84 L0.43225,17.9644444 C12.20975,25.4222222 34.22475,31.92 54.681375,31.92 L54.681375,31.92 C69.6535,31.92 79.63725,27.6444444 90.55725,23.3333333 L90.55725,23.3333333 L90.55725,5.84 C90.55725,3.00266667 88.291875,0.702222222 85.498875,0.702222222 L85.498875,0.702222222 L5.48975,0.702222222 Z" id="Fill-66" fill="url(#linearGradient-47)" mask="url(#mask-46)"></path>
                    </g>
                    <g id="Group-77" transform="translate(180.000000, 206.000000)">
                        <path d="M46.6487978,9.3072807 C46.6435311,6.85903509 44.6562422,4.87657895 42.2063644,4.87657895 L28.0135756,4.87657895 C25.5636978,4.87657895 23.5764089,6.85903509 23.57202,9.3072807 L23.57202,25.9037719 L46.6742533,25.9037719 L46.6487978,9.3072807 Z M20.3154644,26.990614 L20.3154644,9.3072807 C20.3198533,5.05991228 23.7642533,1.61868421 28.0135756,1.61342105 L42.2414756,1.61342105 C46.4916756,1.61868421 49.9351978,5.05991228 49.9404644,9.3072807 L49.9404644,26.990614 C49.9351978,28.1888596 48.96262,29.1581579 47.7635756,29.1581579 L22.4914756,29.1581579 C21.2933089,29.1581579 20.3198533,28.1888596 20.3154644,26.990614 L20.3154644,26.990614 Z" id="Fill-69" fill="#70462A"></path>
                        <path d="M41.6015756,5.77192982 L28.6631311,5.77192982 C27.6545644,5.77192982 26.8373533,4.95438596 26.8373533,3.94736842 L26.8373533,2.12280702 C26.8373533,1.11491228 27.6545644,0.298245614 28.6631311,0.298245614 L41.6015756,0.298245614 C42.9972422,0.298245614 44.1295756,1.42894737 44.1295756,2.8245614 L44.1295756,3.21929825 C44.1295756,4.61491228 42.9972422,5.74561404 41.6015756,5.74561404 L41.6015756,5.77192982 Z" id="Fill-71" fill="#7C5133"></path>
                        <path d="M0.0648677778,37.5616667 L0.0648677778,19.7985088 C0.0648677778,16.9985088 2.33655667,14.7283333 5.13842333,14.7283333 L73.4909789,14.7283333 C76.2928456,14.7283333 78.5645344,16.9985088 78.5645344,19.7985088 L78.5645344,37.0616667 C67.6098678,41.3151754 57.5944233,45.5353509 42.5756456,45.5353509 C28.04579,45.4020175 13.6537456,42.7028947 0.0648677778,37.5616667" id="Fill-73" fill="#7C5133"></path>
                        <path d="M41.2502011,49.4911404 L35.4744233,49.4911404 C35.2462011,49.4911404 35.0618678,49.3069298 35.0618678,49.0788596 L35.0618678,42.0700877 C35.0618678,41.8420175 35.2462011,41.657807 35.4744233,41.657807 L41.2502011,41.657807 C41.4784233,41.657807 41.6627567,41.8420175 41.6627567,42.0700877 L41.6627567,49.0788596 C41.6627567,49.3069298 41.4784233,49.4911404 41.2502011,49.4911404" id="Fill-75" fill="#A3B7C1"></path>
                    </g>
                    <g id="Group-80" transform="translate(214.000000, 247.000000)">
                        <mask id="mask-49" fill="white">
                            <use xlink:href="#path-48"></use>
                        </mask>
                        <g id="Clip-79"></g>
                        <path d="M1.25688889,0.4329 C1.02577778,0.4329 0.839111111,0.621 0.839111111,0.855 L0.839111111,0.855 L0.839111111,8.0559 C0.839111111,8.289 1.02577778,8.478 1.25688889,8.478 L1.25688889,8.478 L7.10577778,8.478 C7.336,8.478 7.52355556,8.289 7.52355556,8.0559 L7.52355556,8.0559 L7.52355556,0.855 C7.52355556,0.621 7.336,0.4329 7.10577778,0.4329 L7.10577778,0.4329 L1.25688889,0.4329 Z" id="Fill-78" mask="url(#mask-49)"></path>
                    </g>
                    <g id="Group-85" transform="translate(204.000000, 196.000000)">
                        <path d="M13.053,51.609 L17.2675455,51.609 C17.4920909,51.609 17.6734545,51.7942941 17.6734545,52.0237059 L17.6734545,59.0737059 C17.6734545,59.3031176 17.4920909,59.4884118 17.2675455,59.4884118 L13.053,59.4884118 C12.8284545,59.4884118 12.6470909,59.3031176 12.6470909,59.0737059 L12.6470909,52.0237059 C12.6470909,51.7942941 12.8284545,51.609 13.053,51.609" id="Fill-81" fill="#A3B7C1"></path>
                        <path d="M2.47345455,0.0968823529 C2.47345455,0.0968823529 -1.28336364,18.4057059 2.47345455,23.9918824 C6.23027273,29.5762941 19.2539091,20.5851176 18.1311818,16.5351176 C17.0084545,12.486 13.7007273,16.5351176 13.7007273,16.5351176 C13.7007273,16.5351176 18.2952727,5.25864706 9.77118182,1.31452941" id="Fill-83" fill="#F9AA8F"></path>
                    </g>
                </g>
                <g id="Group" transform="translate(627.000000, 292.000000)" fill-rule="nonzero" stroke="#FFFFFF" stroke-width="2">
                    <path d="M19.1687957,28.9319654 C15.477555,25.1056571 9.49656607,25.0126101 5.69483125,28.7223492 C3.52736094,31.1228531 2.54587684,34.4132761 3.03087123,37.6532688 L3.13878625,38.1773092 C4.12289805,41.446193 3.14669154,45.0054821 0.647490283,47.2606769 L0.360744586,47.5369891 L0,47.8355333 L0.687573039,48.0324455 C6.85830132,50.2187763 13.6984567,48.634875 18.3671411,43.938578 L18.8635503,43.4240656 L19.3352932,42.9032012 C22.8097997,39.1192846 22.896845,33.2263686 19.5357068,29.3353178 L19.1657124,28.9287895 L19.1687957,28.9319654 Z" id="Path" fill="url(#linearGradient-50)"></path>
                    <path d="M42.2193142,0.706791613 C43.5437297,-0.261590391 45.3275034,-0.232354649 46.6211617,0.778937131 L46.9088204,1.02629319 L46.9857525,1.10530969 C47.992602,2.20522882 48.277985,3.80929799 47.7149339,5.2038622 L47.5543802,5.56802531 L47.2901355,6.00089842 L28.5287657,31.5129279 C28.0625007,32.2546106 27.3225229,32.7695485 26.4789994,32.9393252 C25.635476,33.1091018 24.7610028,32.9191058 24.056676,32.4130291 L23.722189,32.1622376 L17.012382,25.2534453 C15.771007,24.067476 15.6561312,22.0889011 16.7514822,20.7598102 L17.0056922,20.4643571 L17.2799715,20.2273075 L42.2193142,0.703356085 L42.2193142,0.706791613 Z" id="Path" fill="#8E241D"></path>
                </g>
            </g>
        </g>
    </g>
</svg>