<?xml version="1.0" encoding="UTF-8"?>
<svg width="74px" height="74px" viewBox="0 0 74 74" version="1.1" xmlns="http://www.w3.org/2000/svg" xmlns:xlink="http://www.w3.org/1999/xlink">
    <!-- Generator: Sketch 63 (92445) - https://sketch.com -->
    <title>Group 3 Copy</title>
    <desc>Created with Sketch.</desc>
    <defs>
        <linearGradient x1="50%" y1="0%" x2="50%" y2="100%" id="linearGradient-1">
            <stop stop-color="#FFFFFF" stop-opacity="0.496066434" offset="0%"></stop>
            <stop stop-color="#B892F4" stop-opacity="0.508440778" offset="100%"></stop>
        </linearGradient>
    </defs>
    <g id="切图" stroke="none" stroke-width="1" fill="none" fill-rule="evenodd">
        <g id="折扣页icon切图" transform="translate(-545.000000, -524.000000)">
            <g id="Group-3-Copy" transform="translate(546.221718, 524.609450)">
                <rect id="矩形" stroke="url(#linearGradient-1)" fill-opacity="0.15" fill="#FB9D9D" x="0" y="0" width="72" height="72" rx="35"></rect>
                <path d="M44.93,31.07 L44.93,20.24 C44.9245096,18.4528766 43.4771234,17.0054904 41.69,17 L19.24,17 C17.4528766,17.0054904 16.0054904,18.4528766 16,20.24 L16,42.69 C16.0055108,44.4754961 17.4544954,45.9200085 19.24,45.92 L31.67,45.92 C33.0322188,52.020461 38.7690027,56.1168806 44.981305,55.4250976 C51.1936073,54.7333146 55.8887026,49.4752328 55.8755629,43.2245456 C55.8623679,36.9738584 51.1451617,31.735604 44.93,31.07 Z M31.38,43.32 L19.24,43.32 C18.8904065,43.32 18.6054624,43.0395509 18.6,42.69 L18.6,20.24 C18.6,19.8865378 18.8865378,19.6 19.24,19.6 L41.69,19.6 C42.0395509,19.6054624 42.32,19.8904065 42.32,20.24 L42.32,31.07 C36.0963129,31.7480458 31.379057,36.9994932 31.37,43.26 C31.37,43.26 31.38,43.3 31.38,43.32 Z M43.62,52.91 C39.3192327,52.8981751 35.5442575,50.0445221 34.36,45.91 C34.1107882,45.0657145 33.9828421,44.1902933 33.98,43.31 C33.98,43.31 33.98,43.31 33.98,43.25 C33.9897191,38.4268875 37.5520235,34.3483688 42.33,33.69 C43.1948973,33.5567434 44.0751027,33.5567434 44.94,33.69 C49.9655396,34.3812048 53.597907,38.8454489 53.2527724,43.9065451 C52.9076378,48.9676413 48.7028499,52.8974412 43.63,52.9 L43.62,52.91 Z" id="形状" fill="#FFFFFF" fill-rule="nonzero"></path>
            </g>
        </g>
    </g>
</svg>