<?xml version="1.0" encoding="UTF-8"?>
<svg width="73px" height="73px" viewBox="0 0 73 73" version="1.1" xmlns="http://www.w3.org/2000/svg" xmlns:xlink="http://www.w3.org/1999/xlink">
    <!-- Generator: Sketch 63 (92445) - https://sketch.com -->
    <title>1</title>
    <desc>Created with Sketch.</desc>
    <defs>
        <linearGradient x1="91.6754947%" y1="18.1882434%" x2="10.7071887%" y2="75.8645955%" id="linearGradient-1">
            <stop stop-color="#FFFFFF" stop-opacity="0.774994537" offset="0%"></stop>
            <stop stop-color="#FFBFBF" offset="100%"></stop>
        </linearGradient>
    </defs>
    <g id="切图" stroke="none" stroke-width="1" fill="none" fill-rule="evenodd">
        <g id="折扣页icon切图" transform="translate(-314.000000, -306.000000)">
            <g id="1" transform="translate(314.221718, 306.609450)">
                <g id="编组-3">
                    <rect id="矩形" stroke="url(#linearGradient-1)" fill-opacity="0.15" fill="#FB9D9D" x="0.5" y="0.5" width="71" height="71" rx="35.5"></rect>
                    <path d="M49.3927711,46.9110964 C49.7871741,46.8686736 50.1709562,47.0573885 50.3812878,47.3971738 C50.5916194,47.7369591 50.5916194,48.1682342 50.3812878,48.5080195 C50.1709562,48.8478048 49.7871741,49.0365197 49.3927711,48.9940969 L49.3927711,48.9940969 L23.5955823,48.9940969 C23.0685632,48.9374098 22.6687554,48.488135 22.6687554,47.9525966 C22.6687554,47.4170583 23.0685632,46.9677835 23.5955823,46.9110964 L23.5955823,46.9110964 Z M30.9911647,19.0083034 C33.2076196,17.2381541 36.1046525,16.5919742 38.8526104,17.254817 C42.4354375,18.1095532 45.1455372,21.077248 45.701268,24.7544401 C46.2569989,28.4316323 44.5469872,32.0813773 41.3799197,33.9776634 L41.3799197,33.9776634 L41.3799197,34.8367541 L47.7156627,34.8367541 C49.5250135,34.8367426 50.9935839,36.3154064 51,38.1436646 L51,38.1436646 L51,43.6512593 C51,44.2297138 50.5359225,44.6986438 49.9634538,44.6986438 L49.9634538,44.6986438 L23.0365462,44.6986438 C22.4640775,44.6986438 22,44.2297138 22,43.6512593 L22,43.6512593 L22,38.1554329 C22.0126924,36.3279159 23.4757314,34.8495792 25.2843373,34.8367541 L25.2843373,34.8367541 L31.6200803,34.8367541 L31.6200803,33.7305278 C29.0972386,32.0449709 27.5760254,29.1959998 27.5670683,26.1399325 C27.5520617,23.3547786 28.8169671,20.7202628 30.9911647,19.0083034 Z M38.386747,19.3260492 C36.2492342,18.8126588 33.9967391,19.315557 32.2722892,20.6911796 C30.5949046,22.0094298 29.6181862,24.0398123 29.6285141,26.1870059 C29.6310722,28.7070779 30.9626256,31.034752 33.12249,32.2947873 C33.4406836,32.4832126 33.6358284,32.8282868 33.6349398,33.2009514 L33.6349398,33.2009514 L33.6349398,35.931212 C33.6380517,36.2079078 33.5314469,36.4743542 33.3389026,36.6711227 C33.1463583,36.8678911 32.8838904,36.9786143 32.6100402,36.9785965 L32.6100402,36.9785965 L25.237751,36.9785965 C24.5945278,36.9785965 24.0730924,37.5054841 24.0730924,38.1554329 L24.0730924,38.1554329 L24.0730924,42.6038748 L48.8803213,42.6038748 L48.8803213,38.1436646 C48.8803213,37.4937157 48.3588859,36.9668281 47.7156627,36.9668281 L47.7156627,36.9668281 L40.3433735,36.9668281 C40.0705986,36.9700149 39.808075,36.8619292 39.6151811,36.6670185 C39.4222873,36.4721077 39.3153201,36.206839 39.3184739,35.931212 L39.3184739,35.931212 L39.3184739,33.4010136 C39.315763,33.0092066 39.5321165,32.6494016 39.87751,32.4713127 C42.4768872,31.1332602 43.9801457,28.3043582 43.648025,25.3757815 C43.3159043,22.4472048 41.2182967,20.0352501 38.386747,19.3260492 Z" id="Combined-Shape" fill="#FFFFFF" fill-rule="nonzero"></path>
                </g>
            </g>
        </g>
    </g>
</svg>