<?xml version="1.0" encoding="UTF-8"?>
<svg width="63px" height="63px" viewBox="0 0 63 63" version="1.1" xmlns="http://www.w3.org/2000/svg" xmlns:xlink="http://www.w3.org/1999/xlink">
    <!-- Generator: Sketch 63 (92445) - https://sketch.com -->
    <title>Group 4 Copy</title>
    <desc>Created with Sketch.</desc>
    <defs>
        <linearGradient x1="11.5438706%" y1="80.7831917%" x2="91.6754947%" y2="18.1882434%" id="linearGradient-1">
            <stop stop-color="#FFFFFF" stop-opacity="0.265515734" offset="0%"></stop>
            <stop stop-color="#FFD99B" stop-opacity="0.50267701" offset="100%"></stop>
        </linearGradient>
    </defs>
    <g id="切图" stroke="none" stroke-width="1" fill="none" fill-rule="evenodd">
        <g id="折扣页icon切图" transform="translate(-838.000000, -350.000000)">
            <g id="Group-4-Copy" transform="translate(838.221718, 350.609450)">
                <rect id="矩形" stroke="url(#linearGradient-1)" fill-opacity="0.15" fill="#FBD09D" x="0.5" y="0.5" width="61" height="61" rx="30.5"></rect>
                <rect id="矩形" fill="#FFE547" fill-rule="nonzero" x="16" y="24" width="30" height="15" rx="0.69"></rect>
                <path d="M42.9593775,16 L19.0367976,16 C18.4641901,16 18,16.4567541 18,17.0201542 L18,20.4105733 C18,20.9739734 18.4641901,21.4306995 19.0367976,21.4306995 C19.6094051,21.4306995 20.0735952,20.9739734 20.0735952,20.4105733 L20.0735952,18.0402803 L29.9460429,18.0402803 L29.9460429,43.9634853 L27.8038361,43.9634853 C27.4135996,43.9304698 27.0377624,44.1166477 26.8323071,44.4447502 C26.6268518,44.7728528 26.6268518,45.1868692 26.8323071,45.5149718 C27.0377624,45.8430743 27.4135996,46.0292522 27.8038361,45.9962366 L34.1542214,45.9962366 C34.544458,46.0292522 34.9202951,45.8430743 35.1257505,45.5149718 C35.3312058,45.1868692 35.3312058,44.7728528 35.1257505,44.4447502 C34.9202951,44.1166477 34.544458,43.9304698 34.1542214,43.9634853 L32.0196381,43.9634853 L32.0196381,18.0402803 L41.9302035,18.0402803 L41.9302035,20.4105733 C41.8966483,20.794535 42.0858689,21.1643287 42.4193334,21.3664804 C42.752798,21.568632 43.1735806,21.568632 43.5070452,21.3664804 C43.8405097,21.1643287 44.0297302,20.794535 43.9961751,20.4105733 L43.9961751,17.0201542 C43.9982243,16.7489868 43.8896487,16.4883407 43.6947655,16.2965911 C43.4998822,16.1048415 43.2349764,15.9980118 42.9593775,16 Z" id="路径" fill="#FFFFFF" fill-rule="nonzero"></path>
            </g>
        </g>
    </g>
</svg>