<?xml version="1.0" encoding="UTF-8"?>
<svg width="199px" height="59px" viewBox="0 0 199 59" version="1.1" xmlns="http://www.w3.org/2000/svg" xmlns:xlink="http://www.w3.org/1999/xlink">
    <!-- Generator: Sketch 63 (92445) - https://sketch.com -->
    <title>logo/横版</title>
    <desc>Created with Sketch.</desc>
    <g id="切图" stroke="none" stroke-width="1" fill="none" fill-rule="evenodd">
        <g id="10%折扣页" transform="translate(-260.000000, -20.000000)">
            <g id="logo/横版" transform="translate(260.000000, 20.000000)">
                <path d="M5.01710311,58.8832487 C4.03611241,58.8832487 3.31143757,58.7295779 2.88968147,58.5995488 C2.49821725,58.4766121 2.10209274,58.3300338 1.75490125,58.1125305 C0.909058915,57.5829573 0.78323113,56.7625916 1.40537963,55.9753242 C2.08345158,55.1124036 2.78016469,54.266032 3.46755723,53.412568 C7.27035253,48.6984205 11.0731478,43.984273 14.8759431,39.2724896 C16.7027762,37.0123467 18.5226188,34.7498396 20.3541121,32.4967891 C21.3211219,31.3028852 22.6819261,30.7543986 24.0613715,30.2721087 C25.7134437,29.6952521 27.4237695,29.4446505 29.1713777,29.4446505 C39.0045861,29.4446505 48.8401247,29.4399222 58.6756633,29.4422863 C59.6589841,29.4422863 60.6353146,29.508483 61.5720325,29.8631079 C62.8070089,30.3264845 63.5549852,31.3265268 62.2873868,32.6670091 C61.6023244,33.3928081 60.7588122,33.8585489 59.866367,34.2391797 C57.9952612,35.0359037 56.0472607,35.466182 54.0083845,35.466182 C50.7112305,35.466182 47.4094162,35.4283553 44.1122622,35.4969161 C40.0834429,35.5843903 36.1990925,36.4260335 32.5570772,38.2062506 C31.6180291,38.6648989 30.7046126,39.2724896 29.9379951,39.9864678 C28.3232052,41.4853492 28.6261239,42.8140107 30.6673302,43.6107347 C32.1026991,44.1686779 33.6126325,44.3932737 35.1295564,44.4121871 C37.2593081,44.4358287 39.3913901,44.3081638 41.523472,44.2987071 C42.9891327,44.2916146 44.4734345,44.2656088 45.9227842,44.4523779 C47.4164066,44.6486037 47.7845694,45.8566927 46.7290141,46.9631225 C46.1977412,47.5187015 45.5266597,47.9868065 44.8415973,48.3367031 C42.6279603,49.4667745 40.2512133,49.9514286 37.7789303,49.9679778 C34.5400299,49.9892553 31.3034596,49.9514286 28.0668893,50.0412669 C26.009372,50.1003711 24.0473906,50.6843202 22.2089069,51.6418075 C21.4096674,52.0602649 20.7129543,52.6087515 20.1607101,53.3392789 C19.722643,53.9161354 19.2123415,54.4457087 18.8022361,55.0438427 C17.718719,56.6160133 16.1854842,57.5143965 14.4285555,58.0321489 C13.2867848,58.3678605 12.1217127,58.7059363 10.9356693,58.8028671 C9.92671689,58.8832487 9.04592239,58.8548787 8.94572619,58.8832487 L5.01710311,58.8832487 Z" id="Fill-1" fill-opacity="0.2" fill="#000000"></path>
                <g id="编组" stroke-width="1" fill="#FFFFFF">
                    <path d="M23.0777942,0.330688325 C27.2152192,0.330688325 30.568934,3.6870335 30.568934,7.82770355 C30.568934,11.9683736 27.2152192,15.3247188 23.0777942,15.3247188 L23.0777942,15.3247188 L22.4729488,15.3247188 C18.3378772,15.3247188 14.981809,18.681064 14.981809,22.821734 L14.981809,22.821734 L14.981809,26.7198051 C14.981809,30.8604751 18.3378772,34.2191756 22.4729488,34.2191756 L22.4729488,34.2191756 L28.0718874,34.2191756 C32.2093124,34.2191756 35.5630272,30.8604751 35.5630272,26.7198051 L35.5630272,26.7198051 L35.5630272,7.82770355 C35.5630272,3.6870335 38.916742,0.330688325 43.0541671,0.330688325 C47.1915921,0.330688325 50.5453069,3.6870335 50.5453069,7.82770355 L50.5453069,7.82770355 L50.5453069,31.7201706 C50.5453069,35.8608406 47.1915921,39.2171858 43.0541671,39.2171858 L43.0541671,39.2171858 L22.4729488,39.2171858 C18.3378772,39.2171858 14.981809,42.5711756 14.981809,46.7118457 L14.981809,46.7118457 L14.981809,51.3871756 C14.981809,55.5254904 11.6280941,58.8818355 7.49066913,58.8818355 C3.35324412,58.8818355 -0.000470696816,55.5254904 -0.000470696816,51.3871756 L-0.000470696816,51.3871756 L-0.000470696816,7.82770355 C-0.000470696816,3.6870335 3.35324412,0.330688325 7.49066913,0.330688325 L7.49066913,0.330688325 Z M26.5274803,20.3045685 C28.137455,20.3045685 29.4416244,21.6106249 29.4416244,23.220154 L29.4416244,25.5130585 C29.4416244,27.1203396 28.137455,28.4263959 26.5274803,28.4263959 L24.233941,28.4263959 C22.6239664,28.4263959 21.319797,27.1203396 21.319797,25.5130585 L21.319797,23.220154 C21.319797,21.6106249 22.6239664,20.3045685 24.233941,20.3045685 L26.5274803,20.3045685 Z" id="Fill-4"></path>
                </g>
                <path d="M151.633406,26.3959391 C153.273075,26.3959391 154.50055,26.8563052 155.297611,27.823074 C155.980807,28.6226573 156.345178,29.7372279 156.345178,31.1910156 L156.345178,39.2546915 L155.047106,39.2546915 L155.047106,36.8583647 C154.56887,37.5852586 153.933498,38.2152333 153.15921,38.6998292 C152.202736,39.2789213 151.177943,39.5939086 150.062057,39.5939086 C148.923398,39.5939086 147.991975,39.2789213 147.308779,38.6731764 C146.557264,38.0432017 146.192893,37.1975819 146.192893,36.1799305 C146.192893,34.7261427 146.73945,33.6624547 147.855336,32.9815975 C148.811809,32.329816 150.198696,31.9905988 151.975004,31.9905988 L154.978787,31.9397163 L154.978787,31.1910156 C154.978787,28.8164956 153.842405,27.6292357 151.565087,27.6292357 C150.608613,27.6292357 149.834325,27.823074 149.219449,28.2616333 C148.536254,28.7195765 148.105841,29.3737809 147.923655,30.2460536 L146.580037,30.1491344 C146.807769,28.889185 147.399872,27.9199932 148.356346,27.2900185 C149.196676,26.6842737 150.289789,26.3959391 151.633406,26.3959391 Z M163.273374,26.3959391 C166.173007,26.3959391 167.814309,27.6776953 168.171114,30.2460536 L166.767682,30.2460536 C166.601173,29.3737809 166.268155,28.7438063 165.744842,28.3318997 C165.176333,27.8739566 164.343789,27.6558884 163.249587,27.6558884 C162.345682,27.6558884 161.608285,27.823074 161.037398,28.2107508 C160.468889,28.5984275 160.183445,29.0854464 160.183445,29.7129981 C160.183445,30.3429728 160.54025,30.8517985 161.277646,31.2370522 C161.751007,31.4817731 162.607339,31.7725307 163.868049,32.1117478 C165.36425,32.4994245 166.434664,32.8846783 167.053126,33.274778 C168.028392,33.8805229 168.527919,34.7261427 168.527919,35.7922537 C168.527919,38.3121525 166.86283,39.5939086 163.535031,39.5939086 C160.373741,39.5939086 158.661078,38.1643507 158.375635,35.3076578 L159.779067,35.3076578 C159.921788,36.3979986 160.300001,37.1975819 160.920842,37.6821778 C161.489351,38.1183141 162.345682,38.3339593 163.487457,38.3339593 C165.863777,38.3339593 167.053126,37.5125692 167.053126,35.8649431 C167.053126,35.1138195 166.648747,34.5323044 165.842368,34.1203979 C165.411824,33.9023297 164.507919,33.6115722 163.106865,33.2505482 C161.679646,32.8628715 160.682972,32.4994245 160.112084,32.1335546 C159.160605,31.5520395 158.708652,30.7548793 158.708652,29.7372279 C158.708652,28.7195765 159.136818,27.9199932 160.040723,27.2900185 C160.894676,26.6842737 161.988877,26.3959391 163.273374,26.3959391 Z M184.218751,26.3959391 C186.117484,26.3959391 187.53168,27.0501436 188.482205,28.4045891 C189.314494,29.5918491 189.778165,31.263705 189.847716,33.4201568 L180.117583,33.4201568 C180.184815,34.9442109 180.578935,36.1557007 181.297625,37.0255503 C182.039498,37.9002459 183.013207,38.3339593 184.2628,38.3339593 C185.352427,38.3339593 186.233401,38.0213949 186.905724,37.4374568 C187.462129,36.9286311 187.879433,36.2041603 188.180819,35.2349684 L189.592697,35.2349684 C189.314494,36.4464582 188.781273,37.4374568 187.995351,38.2152333 C187.021642,39.1335425 185.792914,39.5939086 184.2628,39.5939086 C182.57272,39.5939086 181.228074,38.9881637 180.231182,37.8033268 C179.190241,36.591837 178.680203,34.9708637 178.680203,32.9815975 C178.680203,31.140133 179.167057,29.6160789 180.161631,28.3585525 C181.181707,27.0501436 182.526353,26.3959391 184.218751,26.3959391 Z M80.1569765,20.3045685 C81.8131923,20.3045685 82.9962036,20.4210078 83.7060103,20.6607356 C84.9072218,21.0625652 85.8536308,21.8936217 86.5452374,23.1539053 C87.0548422,24.1036842 87.3096447,25.1356555 87.3096447,26.2475361 C87.3096447,27.1790501 87.1412931,28.0626184 86.8045899,28.8913919 C86.4678866,29.7247315 85.9992322,30.405102 85.3986265,30.9347864 C84.8526213,31.4096759 84.2747657,31.7384455 83.6650599,31.9210953 C83.0553541,32.1037451 82.2226962,32.19507 81.1670861,32.19507 L74.9426268,32.19507 L74.9426268,38.5786802 L71.0659898,38.5786802 L71.0659898,20.3045685 L80.1569765,20.3045685 Z M97.2562506,20.3045685 C99.2329568,20.3045685 100.762107,20.4963269 101.843701,20.8798435 C103.839055,21.5920887 105.1724,22.8978716 105.843734,24.7971921 C106.347234,26.2604907 106.598985,27.8196685 106.598985,29.481574 C106.598985,31.1274996 106.356559,32.6798289 105.871706,34.1385619 C105.386854,35.6383859 104.584982,36.7432791 103.466092,37.4532415 C102.757461,37.893829 101.9789,38.1905979 101.130408,38.3458308 C100.281916,38.4987809 98.9905306,38.5786802 97.2562506,38.5786802 L89.3401015,38.5786802 L89.3401015,20.3045685 L97.2562506,20.3045685 Z M124.873096,20.3045685 L124.873096,23.5625842 L118.855184,23.5625842 C116.990479,23.6013973 115.79443,23.745234 115.267039,24.0032268 C114.212256,24.4210382 113.666029,25.3548353 113.628359,26.7954855 L113.628359,27.7840775 L124.873096,27.7840775 L124.873096,31.0443763 L113.628359,31.0443763 L113.628359,38.5786802 L109.64467,38.5786802 L109.64467,29.0443611 C109.663505,26.3046142 109.927201,24.5032306 110.435757,23.6470597 C111.076161,22.439288 112.003805,21.5808339 113.218688,21.0716977 C114.433572,20.5602782 116.142885,20.3045685 118.346628,20.3045685 L124.873096,20.3045685 Z M139.109121,26.3959391 C140.341776,26.3959391 141.343879,26.7861173 142.074342,27.5641786 C142.781977,28.344535 143.147208,29.423263 143.147208,30.8233143 L143.147208,38.5786802 L141.777591,38.5786802 L141.777591,31.0069276 C141.777591,29.8822962 141.549322,29.03538 141.095066,28.4845401 C140.592873,27.887797 139.79393,27.5894254 138.74389,27.5894254 C137.876466,27.5894254 137.168831,27.9107486 136.60044,28.5763468 C136.006939,29.2166981 135.733016,30.0223014 135.733016,31.0298792 L135.733016,38.5786802 L134.340572,38.5786802 L134.340572,31.0069276 C134.340572,28.7117616 133.359014,27.5894254 131.398179,27.5894254 C130.507928,27.5894254 129.779749,27.9314051 129.183965,28.6681534 C128.56992,29.3773597 128.27317,30.2495228 128.27317,31.2800523 L128.27317,38.5786802 L126.903553,38.5786802 L126.903553,26.7172623 L128.27317,26.7172623 L128.27317,28.5051966 C129.115484,27.0844889 130.256832,26.3959391 131.694929,26.3959391 C133.564456,26.3959391 134.797111,27.1992472 135.390612,28.8265199 C135.801497,28.0232118 136.326517,27.4287638 136.963388,27.0156339 C137.556889,26.602504 138.287351,26.3959391 139.109121,26.3959391 Z M174.519698,22.3350254 L174.519698,26.3008914 L177.664975,26.3008914 L177.664975,27.5365117 L174.519698,27.5365117 L174.519698,35.8484345 C174.519698,36.371197 174.612961,36.7751498 174.799486,37.0127691 C174.986011,37.2266264 175.335745,37.3454361 175.848688,37.3454361 L177.361872,37.3454361 L177.361872,38.5786802 L175.662163,38.5786802 C174.729539,38.5786802 174.053386,38.317299 173.657021,37.8444366 C173.283971,37.4167219 173.120762,36.7513878 173.120762,35.8484345 L173.120762,27.5365117 L170.558376,27.5365117 L170.558376,26.3008914 L173.120762,26.3008914 L173.120762,22.9290736 L174.519698,22.3350254 Z M197.289822,25.8957022 C197.975102,25.8957022 198.546168,25.9643993 199.00302,26.1539086 L199.00302,27.5965482 C198.386269,27.4094078 197.794645,27.3383418 197.198452,27.3383418 C196.149975,27.3383418 195.281954,27.8121151 194.64236,28.8046701 C194.005051,29.7048393 193.708096,30.7708291 193.708096,32.0026396 L193.708096,38.4672758 L192.337538,38.4672758 L192.337538,26.2249746 L193.708096,26.2249746 L193.708096,28.5701523 C194.025609,27.8121151 194.459619,27.1938409 195.007843,26.7461252 C195.647437,26.1775973 196.424086,25.8957022 197.289822,25.8957022 Z M154.978787,33.0785167 L152.043324,33.1293992 C149.060037,33.153629 147.582057,34.1712804 147.582057,36.1557007 C147.582057,36.8341349 147.832562,37.3671904 148.333572,37.779097 C148.834582,38.1910035 149.517778,38.4090716 150.335335,38.4090716 C151.519541,38.4090716 152.612653,37.9729353 153.56685,37.1006627 C154.50055,36.2768496 154.978787,35.3561174 154.978787,34.3893486 L154.978787,33.0785167 Z M97.2562506,23.56446 L93.3121622,23.56446 L93.3121622,35.3187887 L97.2562506,35.3187887 C98.9905306,35.3187887 100.193338,34.9444034 100.864672,34.1956328 C101.274932,33.7208027 101.605937,33.0542142 101.857687,32.1958674 C102.109437,31.3352378 102.235313,30.4221029 102.235313,29.45418 C102.235313,28.3766808 102.086127,27.3904952 101.787756,26.495623 C101.489386,25.6030336 101.097774,24.9364452 100.612922,24.4958576 C99.904291,23.8772087 98.7854007,23.56446 97.2562506,23.56446 Z M184.239617,27.6558884 C183.059574,27.6558884 182.109049,28.067795 181.390359,28.9376446 C180.671669,29.7856875 180.254366,30.8760283 180.138448,32.2304738 L188.389471,32.2304738 C188.155317,29.1823656 186.766623,27.6558884 184.239617,27.6558884 Z M80.2934778,23.5625842 L74.9426268,23.5625842 L74.9426268,28.9347712 L80.211577,28.9347712 C81.157986,28.9347712 81.8222924,28.7886514 82.204496,28.4964117 C82.7687014,28.0375041 83.0508041,27.2452606 83.0508041,26.1128319 C83.0508041,24.8890783 82.6231,24.1036842 81.7676918,23.7543665 C81.4582889,23.6287947 80.9668842,23.5625842 80.2934778,23.5625842 Z" id="形状结合" fill="#FFFFFF"></path>
            </g>
        </g>
    </g>
</svg>