<?xml version="1.0" encoding="UTF-8"?>
<svg width="29px" height="29px" viewBox="0 0 29 29" version="1.1" xmlns="http://www.w3.org/2000/svg" xmlns:xlink="http://www.w3.org/1999/xlink">
    <!-- Generator: Sketch 63 (92445) - https://sketch.com -->
    <title>1-appicon/open/buy</title>
    <desc>Created with Sketch.</desc>
    <g id="切图" stroke="none" stroke-width="1" fill="none" fill-rule="evenodd">
        <g id="10%折扣页" transform="translate(-400.000000, -637.000000)" fill="#FFFFFF">
            <g id="1-appicon/open/buy" transform="translate(398.000000, 634.000000)">
                <path d="M10.8186618,28.3333 C11.5533971,28.3333 12.1483676,28.9463 12.1483676,29.7033 C12.1483676,30.4583 11.5533971,31.0723 10.8186618,31.0723 C10.0848971,31.0723 9.48992647,30.4583 9.48992647,29.7033 C9.48992647,28.9463 10.0848971,28.3333 10.8186618,28.3333 Z M23.9604265,28.3333 C24.6951618,28.3333 25.2891618,28.9463 25.2891618,29.7033 C25.2891618,30.4583 24.6951618,31.0723 23.9604265,31.0723 C23.2266618,31.0723 22.6316912,30.4583 22.6316912,29.7033 C22.6316912,28.9463 23.2266618,28.3333 23.9604265,28.3333 Z M3.70716176,3.0161 C4.24486765,2.9171 4.74083824,3.2771 4.83692647,3.8201 L4.83692647,3.8201 L5.56098529,7.8901 C6.07636765,7.5381 6.67619118,7.3311 7.30998529,7.3311 L7.30998529,7.3311 L27.3972794,7.3311 C28.3649559,7.3311 29.2695441,7.7771 29.8771324,8.5531 C30.48375,9.3291 30.7137794,10.3331 30.5089853,11.3071 L30.5089853,11.3071 L27.95925,23.4391 C27.64575,24.9381 26.3364265,26.0261 24.8475441,26.0261 L24.8475441,26.0261 L9.49866176,26.0261 C7.96513235,26.0261 6.64804412,24.8981 6.36754412,23.3451 L6.36754412,23.3451 L4.17886765,11.2111 L4.17886765,11.2071 L2.92777941,4.1801 C2.83072059,3.6371 3.18013235,3.1161 3.70716176,3.0161 Z M27.3972794,9.3311 L7.30998529,9.3311 C6.93922059,9.3311 6.59175,9.5001 6.35395588,9.7941 C6.11713235,10.0871 6.02007353,10.4701 6.08801471,10.8461 L6.08801471,10.8461 L8.27669118,22.9791 C8.38539706,23.5851 8.89980882,24.0261 9.49866176,24.0261 L9.49866176,24.0261 L24.8475441,24.0261 C25.4289265,24.0261 25.9394559,23.6011 26.06175,23.0171 L26.06175,23.0171 L28.6114853,10.8831 C28.6920441,10.5021 28.6017794,10.1111 28.3649559,9.8081 C28.1281324,9.5051 27.7758088,9.3311 27.3972794,9.3311 L27.3972794,9.3311 Z M25.1208618,13.6292 C25.2402441,13.0912 25.76145,12.7532 26.2836265,12.8782 C26.8058029,13.0022 27.1319206,13.5382 27.0125382,14.0762 L27.0125382,14.0762 L25.4586265,21.0582 C25.3557441,21.5212 24.9568324,21.8342 24.5142441,21.8342 C24.4424206,21.8342 24.3686559,21.8262 24.2958618,21.8092 C23.7736853,21.6852 23.4475676,21.1492 23.56695,20.6102 L23.56695,20.6102 Z" id="Combined-Shape"></path>
            </g>
        </g>
    </g>
</svg>