<?xml version="1.0" encoding="UTF-8"?>
<svg width="74px" height="64px" viewBox="0 0 74 64" version="1.1" xmlns="http://www.w3.org/2000/svg" xmlns:xlink="http://www.w3.org/1999/xlink">
    <!-- Generator: Sketch 63 (92445) - https://sketch.com -->
    <title>web控件/奖励</title>
    <desc>Created with Sketch.</desc>
    <defs>
        <linearGradient x1="50%" y1="6.22118529%" x2="50%" y2="100%" id="linearGradient-1">
            <stop stop-color="#FFD96F" offset="0%"></stop>
            <stop stop-color="#FFC748" offset="100%"></stop>
        </linearGradient>
        <linearGradient x1="50%" y1="0%" x2="50%" y2="100%" id="linearGradient-2">
            <stop stop-color="#FFDE86" offset="0%"></stop>
            <stop stop-color="#F8BD38" offset="100%"></stop>
        </linearGradient>
    </defs>
    <g id="切图" stroke="none" stroke-width="1" fill="none" fill-rule="evenodd">
        <g id="10%折扣页" transform="translate(-403.000000, -885.000000)">
            <g id="Group-2" transform="translate(260.000000, 847.000000)">
                <g id="Group" transform="translate(38.000000, 38.000000)">
                    <g id="web控件/奖励" transform="translate(105.000000, 0.000000)">
                        <g id="Group-9" stroke-width="1" transform="translate(10.000000, 3.500000)">
                            <path d="M22,42 L22,55.280557 L13,60 L13,42 L22,42 Z M43,42 L43,60 L34,55.280557 L34,42 L43,42 Z" id="Combined-Shape" fill="#E22929"></path>
                            <polygon id="Star" fill="url(#linearGradient-1)" points="27.5 48.1653181 19.0020327 52.6785259 14.8289555 44.123102 5.25203265 42.8702018 6.9978194 33.540443 0 27 6.9978194 20.459557 5.25203265 11.1297982 14.8289555 9.87689798 19.0020327 1.32147406 27.5 5.83468192 35.9979673 1.32147406 40.1710445 9.87689798 49.7479673 11.1297982 48.0021806 20.459557 55 27 48.0021806 33.540443 49.7479673 42.8702018 40.1710445 44.123102 35.9979673 52.6785259"></polygon>
                            <ellipse id="Oval" stroke="#FDB728" stroke-width="2.5" fill="url(#linearGradient-2)" cx="28" cy="26.5151515" rx="15.75" ry="16.2651515"></ellipse>
                            <path d="M34,33 L34,34 L21,34 L21,33 L34,33 Z M28.1064855,21 L31.5381367,27.5194988 L35,23.6016308 L34.000307,32 L22.3825316,32 L21,23.6016308 L24.9067034,27.5194988 L28.1064855,21 Z M35,21 C35.5522847,21 36,21.4477153 36,22 C36,22.5522847 35.5522847,23 35,23 C34.4477153,23 34,22.5522847 34,22 C34,21.4477153 34.4477153,21 35,21 Z M20,21 C20.5522847,21 21,21.4477153 21,22 C21,22.5522847 20.5522847,23 20,23 C19.4477153,23 19,22.5522847 19,22 C19,21.4477153 19.4477153,21 20,21 Z M28,18 C28.5522847,18 29,18.4477153 29,19 C29,19.5522847 28.5522847,20 28,20 C27.4477153,20 27,19.5522847 27,19 C27,18.4477153 27.4477153,18 28,18 Z" id="Combined-Shape" fill="#FFF0BD"></path>
                        </g>
                        <circle id="Oval" fill="#FDB728" cx="66" cy="6.5" r="1"></circle>
                        <circle id="Oval-Copy-10" fill="#FDB728" cx="3" cy="9.5" r="1"></circle>
                        <circle id="Oval-Copy-11" fill="#FDB728" cx="73" cy="31.5" r="1"></circle>
                        <circle id="Oval-Copy-8" fill="#FDB728" cx="11" cy="20.5" r="2"></circle>
                        <circle id="Oval-Copy-9" fill="#FDB728" cx="67" cy="43.5" r="2"></circle>
                        <path d="M3,36.5 C3.55228475,36.5 4,36.9477153 4,37.5 L4,38.5 L5,38.5 C5.55228475,38.5 6,38.9477153 6,39.5 C6,40.0522847 5.55228475,40.5 5,40.5 L3.999,40.5 L4,41.5 C4,42.0522847 3.55228475,42.5 3,42.5 C2.44771525,42.5 2,42.0522847 2,41.5 L1.999,40.5 L1,40.5 C0.44771525,40.5 6.76353751e-17,40.0522847 0,39.5 C-6.76353751e-17,38.9477153 0.44771525,38.5 1,38.5 L2,38.5 L2,37.5 C2,36.9477153 2.44771525,36.5 3,36.5 Z" id="Combined-Shape" fill="#FDBE39"></path>
                        <path d="M20,0 C20.2761424,1.69088438e-17 20.5,0.223857625 20.5,0.5 L20.5,2.5 L22.5,2.5 C22.7761424,2.5 23,2.72385763 23,3 C23,3.27614237 22.7761424,3.5 22.5,3.5 L20.499,3.5 L20.5,5.5 C20.5,5.77614237 20.2761424,6 20,6 C19.7238576,6 19.5,5.77614237 19.5,5.5 L19.499,3.5 L17.5,3.5 C17.2238576,3.5 17,3.27614237 17,3 C17,2.72385763 17.2238576,2.5 17.5,2.5 L19.5,2.5 L19.5,0.5 C19.5,0.223857625 19.7238576,-1.69088438e-17 20,0 Z" id="Combined-Shape" fill="#FDBE39"></path>
                        <polygon id="Triangle" fill="#FDB728" points="66 17.5 68 21.5 64 21.5"></polygon>
                    </g>
                </g>
            </g>
        </g>
    </g>
</svg>