<?xml version="1.0" encoding="UTF-8"?>
<svg width="64px" height="59px" viewBox="0 0 64 59" version="1.1" xmlns="http://www.w3.org/2000/svg" xmlns:xlink="http://www.w3.org/1999/xlink">
    <!-- Generator: Sketch 63 (92445) - https://sketch.com -->
    <title>web控件/奖励 copy</title>
    <desc>Created with Sketch.</desc>
    <g id="切图" stroke="none" stroke-width="1" fill="none" fill-rule="evenodd">
        <g id="10%折扣页" transform="translate(-1100.000000, -886.000000)">
            <g id="Group-2" transform="translate(260.000000, 847.000000)">
                <g id="web控件/奖励-copy-4" transform="translate(836.000000, 38.000000)">
                    <circle id="Oval-Copy-10" fill="#FDB728" cx="55" cy="49.5" r="1"></circle>
                    <circle id="Oval-Copy-11" fill="#FDB728" cx="62" cy="39" r="1"></circle>
                    <circle id="Oval-Copy-9" fill="#FDB728" cx="15" cy="7" r="2"></circle>
                    <path d="M7,29 C7.55228475,29 8,29.4477153 8,30 L8,31 L9,31 C9.55228475,31 10,31.4477153 10,32 C10,32.5522847 9.55228475,33 9,33 L7.999,33 L8,34 C8,34.5522847 7.55228475,35 7,35 C6.44771525,35 6,34.5522847 6,34 L5.999,33 L5,33 C4.44771525,33 4,32.5522847 4,32 C4,31.4477153 4.44771525,31 5,31 L6,31 L6,30 C6,29.4477153 6.44771525,29 7,29 Z" id="Combined-Shape" fill="#FDBE39"></path>
                    <path d="M54,1 C54.2761424,1 54.5,1.22385763 54.5,1.5 L54.5,3.5 L56.5,3.5 C56.7761424,3.5 57,3.72385763 57,4 C57,4.27614237 56.7761424,4.5 56.5,4.5 L54.499,4.5 L54.5,6.5 C54.5,6.77614237 54.2761424,7 54,7 C53.7238576,7 53.5,6.77614237 53.5,6.5 L53.499,4.5 L51.5,4.5 C51.2238576,4.5 51,4.27614237 51,4 C51,3.72385763 51.2238576,3.5 51.5,3.5 L53.5,3.5 L53.5,1.5 C53.5,1.22385763 53.7238576,1 54,1 Z" id="Combined-Shape" fill="#FDBE39"></path>
                    <polygon id="Triangle" fill="#FDB728" points="66 17.5 68 21.5 64 21.5"></polygon>
                    <polygon id="Triangle-Copy" fill="#FDB728" points="13 42 15 46 11 46"></polygon>
                    <g id="Group" stroke-width="1" transform="translate(13.000000, 9.000000)">
                        <path d="M46.3255814,1.6744186 L1.6744186,1.6744186 L1.6744186,3.30762072 C1.6744186,7.75641927 2.6467703,11.8008864 4.7556412,14.6212313 C6.52378209,16.9858934 9.11573348,18.4186047 12.551035,18.4186047 L35.7566793,18.4186047 C39.1458918,18.4186047 41.659709,17.0165204 43.3593439,14.6863473 C45.4182855,11.8635704 46.3255814,7.79707423 46.3255814,3.30762072 L46.3255814,1.6744186 Z" id="Path" stroke="#FDCA2B" stroke-width="3.34883721" fill-rule="nonzero"></path>
                        <polygon id="Path" fill="#EFA500" fill-rule="nonzero" points="21.2093023 25.6744186 26.7906977 25.6744186 26.7906977 32.372093 21.2093023 32.372093"></polygon>
                        <path d="M31.255814,36.8372093 L16.744186,36.8372093 L16.744186,33.4086379 C16.744186,32.8239203 17.2770104,32.372093 17.9665478,32.372093 L30.0334522,32.372093 C30.7229896,32.372093 31.255814,32.8239203 31.255814,33.4086379 L31.255814,36.8372093 Z" id="Path" fill="#FDC60E" fill-rule="nonzero"></path>
                        <path d="M24.5581395,26.7906977 C16.5410089,26.7906977 10.0465116,19.630524 10.0465116,10.7916493 L10.0465116,0 L39.0697674,0 L39.0697674,10.8259085 C39.0697674,19.630524 32.5752701,26.7906977 24.5581395,26.7906977 Z" id="Path" fill="#FDC411" fill-rule="nonzero"></path>
                        <path d="M13.1850008,14.8217054 C12.7188885,14.8217054 12.3459987,14.4806202 12.2527763,14.0465116 C12.1595538,13.4263566 12.0974055,12.7751938 12.0974055,12.1550388 C12.0974055,11.627907 12.5013694,11.2248062 13.02963,11.2248062 C13.5578906,11.2248062 13.9618545,11.627907 13.9618545,12.1550388 C13.9618545,12.6821706 13.9929287,13.2403101 14.0861511,13.7674418 C14.1793736,14.2635659 13.8064838,14.7596899 13.3092974,14.8217054 L13.1850008,14.8217054 L13.1850008,14.8217054 Z" id="Path" fill="#FFFFFF" fill-rule="nonzero"></path>
                        <path d="M24.5581395,24.5581395 C20.1145361,24.5581395 15.9506001,22.1705426 13.7443354,18.2945736 C13.4957423,17.8604651 13.651113,17.2713178 14.0861511,17.0232558 C14.5211892,16.7751938 15.1115981,16.9302325 15.3601912,17.3643411 C17.2557143,20.6511628 20.7670933,22.6976744 24.5581395,22.6976744 C25.0864001,22.6976744 25.4903641,23.1007752 25.4903641,23.6279069 C25.4903641,24.1550387 25.0553259,24.5581395 24.5581395,24.5581395 L24.5581395,24.5581395 Z" id="Path" fill="#FFFFFF" fill-rule="nonzero"></path>
                        <polygon id="Path" fill="#EFA500" fill-rule="nonzero" points="10.0465116 0 39.0697674 0 39.0697674 3.72093025 10.0465116 3.72093025"></polygon>
                        <g id="Group-2" transform="translate(8.930233, 36.837209)" fill-rule="nonzero">
                            <path d="M29.0232558,13.3953488 L0,13.3953488 L0,1.92309465 C0,0.862076893 0.9432558,0 2.10418606,0 L26.8827907,0 C28.043721,0 28.9869768,0.862076893 28.9869768,1.92309465 L28.9869768,13.3953488 L29.0232558,13.3953488 Z" id="Path" fill="#E22929"></path>
                            <polygon id="Path" fill="#F75C5C" points="22.3255814 5.58139535 29.0232558 5.58139535 29.0232558 8.93023256 22.3255814 8.93023256"></polygon>
                            <polygon id="Path" fill="#F75C5C" points="0 5.58139535 6.69767442 5.58139535 6.69767442 8.93023256 0 8.93023256"></polygon>
                        </g>
                        <path d="M24.8435803,40.4242026 L25.4934394,42.4705807 L27.579829,42.4705807 C27.887657,42.4705807 28.0244694,42.8939693 27.7850477,43.1056635 L26.1090953,44.3758292 L26.7589544,46.4222073 C26.8615638,46.7397487 26.5195327,46.9867254 26.2459078,46.8103135 L24.5699555,45.5401478 L22.8940032,46.8103135 C22.6203783,47.0220078 22.2783472,46.7397487 22.3809565,46.4222073 L23.0308156,44.3758292 L21.3548633,43.1056635 C21.0812384,42.8939692 21.2180508,42.4705806 21.5600819,42.4705807 L23.5780653,42.4705807 L24.2279244,40.4242026 C24.2963306,40.1066612 24.740971,40.1066612 24.8435803,40.4242026 Z" id="Path" fill="#FFFFFF" fill-rule="nonzero"></path>
                    </g>
                </g>
            </g>
        </g>
    </g>
</svg>