<?xml version="1.0" encoding="UTF-8"?>
<svg width="51px" height="42px" viewBox="0 0 51 42" version="1.1" xmlns="http://www.w3.org/2000/svg" xmlns:xlink="http://www.w3.org/1999/xlink">
    <!-- Generator: Sketch 63 (92445) - https://sketch.com -->
    <title>Fill 1</title>
    <desc>Created with Sketch.</desc>
    <g id="切图" stroke="none" stroke-width="1" fill="none" fill-rule="evenodd" fill-opacity="0.4">
        <g id="首页" transform="translate(-752.000000, -4297.000000)" fill="#FFFFFF">
            <path d="M802.902517,4297.90008 L802.902517,4302.93935 C802.902517,4303.27852 802.703973,4303.58638 802.401686,4303.73672 C796.253993,4306.81434 793.180146,4310.72065 793.180146,4315.45654 C793.180146,4315.92996 793.223074,4316.58772 793.308036,4317.42894 C793.390316,4318.23973 794.071803,4318.86349 794.885652,4318.86349 L801.416124,4318.86349 C802.290788,4318.86349 803,4319.57316 803,4320.44749 L803,4337.4151 C803,4338.29033 802.290788,4339 801.416124,4339 L783.583876,4339 C782.709212,4339 782,4338.29033 782,4337.4151 L782,4321.78181 C782,4308.39745 788.601124,4300.14453 801.805162,4297.02396 C802.36323,4296.89151 802.902517,4297.32554 802.902517,4297.90008 M773,4297.90046 L773,4302.67384 C773,4303.04529 772.758767,4303.37378 772.406892,4303.50625 C765.965236,4305.93097 762.746675,4309.91401 762.746675,4315.45266 C762.746675,4316.03624 762.770254,4316.67621 762.816505,4317.37615 C762.872733,4318.20677 763.577388,4318.86017 764.422612,4318.86017 L771.098247,4318.86017 C771.985187,4318.86017 772.704353,4319.56996 772.704353,4320.44443 L772.704353,4337.41484 C772.704353,4338.29021 771.985187,4339 771.098247,4339 L753.607013,4339 C752.719166,4339 752,4338.29021 752,4337.41484 L752,4321.77897 C752,4308.46132 758.62757,4300.20973 771.880895,4297.02509 C772.448609,4296.88904 773,4297.32404 773,4297.90046" id="Fill-1"></path>
        </g>
    </g>
</svg>